<?xml version="1.0" standalone="no"?>
<!DOCTYPE svg PUBLIC "-//W3C//DTD SVG 1.1//EN" "http://www.w3.org/Graphics/SVG/1.1/DTD/svg11.dtd" >
<svg>
<metadata>
Created by FontForge 20090622 at Tue Oct 16 19:02:06 2018
 By deploy user
Copyright &#194;&#169; 2017 Monotype Imaging Inc. All rights reserved.
</metadata>
<defs>
<font id="FrutigerLTforBNS-Medium" horiz-adv-x="556" >
  <font-face 
    font-family="Frutiger LT for BNS Medium"
    font-weight="500"
    font-stretch="normal"
    units-per-em="1000"
    panose-1="2 11 6 3 4 2 2 2 2 4"
    ascent="750"
    descent="-250"
    x-height="513"
    cap-height="698"
    bbox="-213 -250 1000 938"
    underline-thickness="50"
    underline-position="-75"
    unicode-range="U+000D-U+FB02"
  />
<missing-glyph horiz-adv-x="512" 
d="M0 718h512v-718h-512v718zM462 50v617h-412v-617h412zM223 264q0 37 10 61.5t43 59.5l16 17q21 20 30.5 35t9.5 37q0 36 -22.5 60.5t-53.5 24.5q-34 0 -55 -23.5t-27 -71.5l-50 8q6 66 41.5 101.5t93.5 35.5q54 0 89 -36t35 -95q0 -36 -14 -62t-50 -59q-22 -20 -31 -31.5
t-12.5 -26.5t-3.5 -42v-23h-47q-2 14 -2 30zM222 184h56v-67h-56v67z" />
    <glyph glyph-name="fi" unicode="fi" horiz-adv-x="667" 
d="M130 426h-110v87h110v61q0 188 168 188q40 0 80 -8l-8 -94q-21 12 -51 12q-40 0 -57.5 -23.5t-17.5 -72.5v-63h126v-87h-126v-426h-114v426zM468 734h120v-117h-120v117zM471 513h114v-513h-114v513z" />
    <glyph glyph-name="fl" unicode="fl" horiz-adv-x="667" 
d="M130 426h-110v87h110v61q0 188 168 188q40 0 80 -8l-8 -94q-21 12 -51 12q-40 0 -57.5 -23.5t-17.5 -72.5v-63h126v-87h-126v-426h-114v426zM471 750h114v-750h-114v750z" />
    <glyph glyph-name=".notdef" horiz-adv-x="512" 
d="M0 718h512v-718h-512v718zM462 50v617h-412v-617h412zM223 264q0 37 10 61.5t43 59.5l16 17q21 20 30.5 35t9.5 37q0 36 -22.5 60.5t-53.5 24.5q-34 0 -55 -23.5t-27 -71.5l-50 8q6 66 41.5 101.5t93.5 35.5q54 0 89 -36t35 -95q0 -36 -14 -62t-50 -59q-22 -20 -31 -31.5
t-12.5 -26.5t-3.5 -42v-23h-47q-2 14 -2 30zM222 184h56v-67h-56v67z" />
    <glyph glyph-name="NULL" horiz-adv-x="0" 
 />
    <glyph glyph-name="NULL" horiz-adv-x="0" 
 />
    <glyph glyph-name="nonmarkingreturn" unicode="&#xd;" horiz-adv-x="278" 
 />
    <glyph glyph-name="space" unicode=" " horiz-adv-x="278" 
 />
    <glyph glyph-name="exclam" unicode="!" horiz-adv-x="389" 
d="M129 698h133l-17 -497h-100zM132 126h126v-126h-126v126z" />
    <glyph glyph-name="quotedbl" unicode="&#x22;" horiz-adv-x="519" 
d="M124 698h105v-247h-105v247zM290 698h105v-247h-105v247z" />
    <glyph glyph-name="numbersign" unicode="#" 
d="M123 207h-92v78h103l18 129h-92v78h103l29 206h82l-28 -206h110l28 206h82l-28 -206h88v-78h-100l-17 -129h88v-78h-99l-29 -207h-82l29 207h-110l-30 -207h-82zM327 285l17 129h-110l-17 -129h110z" />
    <glyph glyph-name="dollar" unicode="$" 
d="M451.5 65q-44.5 -52 -127.5 -69v-131h-88v123q-42 0 -75.5 6.5t-83.5 21.5l11 110q37 -18 77 -28.5t75 -10.5q49 0 89.5 26.5t40.5 75.5q0 38 -28 64t-97 55q-58 24 -94.5 47t-60 60.5t-23.5 93.5q0 80 45.5 130t123.5 65v131h88v-125q74 -3 135 -25l-13 -103
q-38 16 -69.5 22.5t-66.5 6.5q-52 0 -84.5 -24t-32.5 -71q0 -27 17.5 -46t37.5 -29.5t70 -32.5q57 -25 92.5 -48t60.5 -62.5t25 -99.5q0 -81 -44.5 -133z" />
    <glyph glyph-name="percent" unicode="%" horiz-adv-x="1000" 
d="M679 720h77l-433 -742h-77zM149.5 376.5q-41.5 50.5 -41.5 141.5q0 94 40.5 143t118.5 49t118 -48.5t40 -143.5q0 -91 -41 -141.5t-117 -50.5t-117.5 50.5zM313.5 428.5q15.5 27.5 15.5 94.5q0 59 -15.5 85.5t-46.5 26.5q-63 0 -63 -116q0 -118 63 -118q31 0 46.5 27.5z
M617.5 38.5q-41.5 50.5 -41.5 141.5q0 95 40.5 143.5t118.5 48.5q77 0 117.5 -48.5t40.5 -143.5q0 -91 -41 -141.5t-117 -50.5t-117.5 50.5zM781 91q16 28 16 94q0 60 -16 86t-46 26q-63 0 -63 -116q0 -118 63 -118q30 0 46 28z" />
    <glyph glyph-name="ampersand" unicode="&#x26;" horiz-adv-x="722" 
d="M185 12.5q-54 24.5 -83.5 69.5t-29.5 105q0 70 36.5 118t114.5 80q-45 48 -64.5 83t-19.5 81q0 49 26.5 85.5t71 56t99.5 19.5q81 0 134 -41t53 -117q0 -56 -34.5 -100.5t-109.5 -82.5l135 -151q19 26 29.5 63.5t13.5 96.5h108q-8 -136 -84 -239l123 -139h-148l-52 65
q-73 -77 -195 -77q-70 0 -124 24.5zM388 484.5q27 29.5 27 60.5q0 37 -21.5 57.5t-58.5 20.5q-36 0 -59 -22t-23 -59q0 -24 14.5 -49t49.5 -60q44 22 71 51.5zM445 133l-162 185q-48 -29 -69.5 -58t-21.5 -67q0 -50 37 -82.5t90 -32.5q74 0 126 55z" />
    <glyph glyph-name="quotesingle" unicode="'" horiz-adv-x="278" 
d="M87 698h105v-247h-105v247z" />
    <glyph glyph-name="parenleft" unicode="(" horiz-adv-x="333" 
d="M91 89.5q-39 108.5 -39 218.5q0 112 36.5 216.5t125.5 231.5h109q-82 -134 -116 -238.5t-34 -208.5q0 -106 36 -213.5t114 -235.5h-109q-84 121 -123 229.5z" />
    <glyph glyph-name="parenright" unicode=")" horiz-adv-x="333" 
d="M125 99.5q35 105.5 35 208.5q0 106 -34.5 211t-114.5 237h108q87 -124 124.5 -229.5t37.5 -218.5q0 -109 -38 -216t-124 -232h-108q79 134 114 239.5z" />
    <glyph glyph-name="asterisk" unicode="*" 
d="M117 364l104 115l-149 32l31 95l142 -60l-16 152h102l-16 -151l140 59l29 -95l-148 -32l102 -115l-84 -58l-76 131l-79 -131z" />
    <glyph glyph-name="plus" unicode="+" horiz-adv-x="600" 
d="M252 205h-205v96h205v205h96v-205h206v-96h-206v-205h-96v205z" />
    <glyph glyph-name="comma" unicode="," horiz-adv-x="278" 
d="M85 126h129l-88 -248h-104z" />
    <glyph glyph-name="hyphen" unicode="-" horiz-adv-x="333" 
d="M37 316h260v-93h-260v93z" />
    <glyph glyph-name="period" unicode="." horiz-adv-x="283" 
d="M81 126h126v-126h-126v126z" />
    <glyph glyph-name="slash" unicode="/" horiz-adv-x="334" 
d="M240 710h96l-242 -722h-96z" />
    <glyph glyph-name="zero" unicode="0" horiz-adv-x="573" 
d="M106.5 83q-59.5 95 -59.5 265q0 166 60 264t179 98t180 -95.5t61 -266.5q0 -164 -60 -262t-181 -98q-120 0 -179.5 95zM404 348q0 269 -119 269q-64 0 -89.5 -76.5t-25.5 -190.5q0 -269 116 -269q118 0 118 267z" />
    <glyph glyph-name="one" unicode="1" horiz-adv-x="397" 
d="M190 561l-113 -94l-61 79l187 152h107v-698h-120v561z" />
    <glyph glyph-name="two" unicode="2" horiz-adv-x="535" 
d="M40 112l118 108q94 89 145 161.5t51 130.5q0 46 -35.5 74t-88.5 28q-76 0 -161 -50l-10 101q96 45 195 45q103 0 163 -53t60 -148q0 -72 -60 -163.5t-218 -234.5l-15 -14v-1h309v-96h-453v112z" />
    <glyph glyph-name="three" unicode="3" horiz-adv-x="501" 
d="M19 13l7 106q80 -35 154 -35q63 0 111 28.5t48 80.5q0 60 -41.5 90.5t-121.5 30.5h-66v96h61q72 0 117.5 26.5t45.5 76.5q0 49 -33.5 75t-95.5 26q-77 0 -155 -37l-7 100q40 16 88.5 24.5t95.5 8.5q100 0 165 -46.5t65 -137.5q0 -60 -36 -101.5t-104 -61.5v-2
q69 -12 107 -56.5t38 -113.5q0 -99 -71 -151t-201 -52q-83 0 -171 25z" />
    <glyph glyph-name="four" unicode="4" horiz-adv-x="560" 
d="M333 152h-313v98l271 448h159v-453h88v-93h-88v-152h-117v152zM333 245v339h-2l-196 -339h198z" />
    <glyph glyph-name="five" unicode="5" horiz-adv-x="551" 
d="M79 10l3 109q40 -19 73.5 -27t69.5 -8q69 0 113 35.5t44 95.5q0 65 -45 100t-120 35q-68 0 -129 -23l6 371h393v-93h-280l-4 -168q39 9 76 9q63 0 114.5 -26.5t81.5 -76.5t30 -118q0 -72 -34 -126t-95.5 -82.5t-140.5 -28.5q-82 0 -156 22z" />
    <glyph glyph-name="six" unicode="6" horiz-adv-x="550" 
d="M47 318q0 176 69.5 284t215.5 108q37 0 77.5 -6.5t67.5 -16.5l-16 -101q-58 28 -123 28q-85 0 -131.5 -66t-48.5 -169h2q30 35 65 51t79 16q96 0 151.5 -59t55.5 -158q0 -112 -61.5 -176.5t-166.5 -64.5q-236 0 -236 330zM360 121q28 40 28 96q0 54 -27 95t-80 41
q-50 0 -80.5 -37t-30.5 -99q0 -55 28.5 -95.5t81.5 -40.5q52 0 80 40z" />
    <glyph glyph-name="seven" unicode="7" horiz-adv-x="508" 
d="M356 602h-325v96h446v-99l-253 -599h-131z" />
    <glyph glyph-name="eight" unicode="8" horiz-adv-x="562" 
d="M158.5 11q-54.5 23 -86.5 67.5t-32 107.5q0 121 138 179v2q-61 24 -92.5 68t-31.5 99q0 80 61.5 128t162.5 48q66 0 117 -20.5t79.5 -57.5t28.5 -84q0 -57 -30 -101t-90 -72v-2q68 -27 104 -73.5t36 -110.5q0 -96 -65 -148.5t-176 -52.5q-69 0 -123.5 23zM363.5 467
q19.5 29 19.5 63q0 38 -28.5 62.5t-74.5 24.5q-24 0 -49.5 -10t-42.5 -31t-17 -50q0 -33 29 -59.5t98 -56.5q46 28 65.5 57zM366.5 109q33.5 28 33.5 76q0 41 -22 67t-61 44q-19 9 -32 14t-20 8l-25 -16q-41 -22 -59 -48.5t-18 -63.5q0 -48 36.5 -78.5t86.5 -30.5
q47 0 80.5 28z" />
    <glyph glyph-name="nine" unicode="9" horiz-adv-x="550" 
d="M140.5 -5.5q-40.5 6.5 -67.5 17.5l16 101q60 -29 123 -29q83 0 130.5 64.5t50.5 170.5l-2 1q-30 -35 -64.5 -51t-79.5 -16q-98 0 -152.5 59.5t-54.5 156.5q0 112 61 176.5t167 64.5q236 0 236 -330q0 -175 -69 -283.5t-216 -108.5q-38 0 -78.5 6.5zM351.5 384.5
q29.5 38.5 29.5 97.5q0 54 -28.5 94.5t-82.5 40.5q-49 0 -78 -38.5t-29 -97.5q0 -55 27.5 -95t78.5 -40q53 0 82.5 38.5z" />
    <glyph glyph-name="colon" unicode=":" horiz-adv-x="278" 
d="M76 513h126v-126h-126v126zM76 126h126v-126h-126v126z" />
    <glyph glyph-name="semicolon" unicode=";" horiz-adv-x="278" 
d="M76 513h126v-126h-126v126zM85 126h129l-88 -248h-104z" />
    <glyph glyph-name="less" unicode="&#x3c;" horiz-adv-x="600" 
d="M46 213v81l508 220v-95l-383 -166l383 -166v-95z" />
    <glyph glyph-name="equal" unicode="=" horiz-adv-x="600" 
d="M47 408h507v-96h-507v96zM47 194h507v-96h-507v96z" />
    <glyph glyph-name="greater" unicode="&#x3e;" horiz-adv-x="600" 
d="M46 87l384 166l-384 166v95l508 -220v-81l-508 -221v95z" />
    <glyph glyph-name="question" unicode="?" horiz-adv-x="500" 
d="M194 209q0 54 16.5 95t70.5 97q32 34 45.5 62t13.5 55q0 47 -33 71.5t-85 24.5q-79 0 -151 -40l-9 103q96 33 182 33q62 0 112.5 -21t80 -61.5t29.5 -97.5q0 -47 -22.5 -86t-71.5 -93q-41 -46 -55.5 -73.5t-14.5 -60.5v-17h-108v9zM185 126h126v-126h-126v126z" />
    <glyph glyph-name="at" unicode="@" horiz-adv-x="800" 
d="M227 31.5q-84 43.5 -133.5 125.5t-49.5 192q0 102 49.5 184.5t135.5 129.5t191 47q89 0 166 -36t124 -102.5t47 -155.5q0 -92 -43.5 -155t-101.5 -93.5t-100 -30.5q-23 0 -39 14t-17 40h-2q-23 -25 -50.5 -39.5t-54.5 -14.5q-41 0 -75.5 21.5t-55 58.5t-20.5 83
q0 63 27.5 119.5t75.5 91t107 34.5q74 0 115 -65l14 50h79l-59 -242q-9 -31 -9 -44q0 -20 16 -20q29 0 56 23t44.5 64.5t17.5 94.5q0 73 -35 123.5t-94 75t-133 24.5q-81 0 -145.5 -37.5t-101 -101.5t-36.5 -142q0 -83 34.5 -146.5t97.5 -98t144 -34.5q143 0 224 76h80
q-50 -76 -129.5 -116.5t-177.5 -40.5q-99 0 -183 43.5zM432.5 249.5q27.5 22.5 43.5 56.5t16 67q0 36 -21.5 59t-54.5 23q-34 0 -62 -21t-44 -54.5t-16 -66.5q0 -38 20.5 -62t57.5 -24q33 0 60.5 22.5z" />
    <glyph glyph-name="A" unicode="A" horiz-adv-x="722" 
d="M296 698h131l285 -698h-132l-66 168h-312l-66 -168h-125zM479 264l-120 317h-2l-119 -317h241z" />
    <glyph glyph-name="B" unicode="B" horiz-adv-x="611" 
d="M82 698h217q113 0 174 -44.5t61 -132.5q0 -61 -35.5 -103.5t-106.5 -57.5v-2q75 -7 118 -52.5t43 -111.5q0 -97 -65.5 -145.5t-190.5 -48.5h-215v698zM263 408q76 0 113.5 23t37.5 76q0 95 -128 95h-84v-194h61zM275 96q155 0 155 105q0 58 -38 86t-120 28h-70v-219h73z
" />
    <glyph glyph-name="C" unicode="C" horiz-adv-x="611" 
d="M226 31q-85 43 -130.5 123.5t-45.5 190.5q0 111 46.5 193.5t131.5 127t198 44.5q87 0 158 -29l-9 -108q-65 38 -148 38q-74 0 -131 -34t-88.5 -94t-31.5 -135q0 -76 32 -135t88.5 -92.5t129.5 -33.5q40 0 83.5 8.5t69.5 23.5l6 -107q-74 -24 -159 -24q-115 0 -200 43z
" />
    <glyph glyph-name="D" unicode="D" horiz-adv-x="722" 
d="M82 698h200q119 0 205.5 -40t133.5 -118t47 -188q0 -173 -99 -262.5t-286 -89.5h-201v698zM295 99q70 0 125.5 27.5t88.5 84t33 139.5q0 74 -31.5 130.5t-87 87.5t-125.5 31h-96v-500h93z" />
    <glyph glyph-name="E" unicode="E" 
d="M88 698h401v-99h-281v-188h257v-99h-257v-213h282v-99h-402v698z" />
    <glyph glyph-name="F" unicode="F" horiz-adv-x="500" 
d="M82 698h380v-99h-260v-188h248v-99h-248v-312h-120v698z" />
    <glyph glyph-name="G" unicode="G" horiz-adv-x="722" 
d="M226 31q-85 43 -130.5 123.5t-45.5 190.5t46 192.5t131.5 127.5t199.5 45q58 0 106 -7t98 -25l-8 -109q-77 42 -186 42q-78 0 -137 -33.5t-91.5 -93t-32.5 -136.5q0 -76 32 -135.5t89 -92.5t130 -33q55 0 101 11v197h-147v96h264v-369q-110 -34 -219 -34q-115 0 -200 43z
" />
    <glyph glyph-name="H" unicode="H" horiz-adv-x="722" 
d="M88 698h120v-287h307v287h120v-698h-120v312h-307v-312h-120v698z" />
    <glyph glyph-name="I" unicode="I" horiz-adv-x="278" 
d="M79 698h120v-698h-120v698z" />
    <glyph glyph-name="J" unicode="J" horiz-adv-x="389" 
d="M22 1v103q29 -11 64 -11q54 0 78.5 28.5t24.5 95.5v481h120v-523q0 -84 -49.5 -135.5t-143.5 -51.5q-55 0 -94 13z" />
    <glyph glyph-name="K" unicode="K" horiz-adv-x="667" 
d="M88 698h120v-303l275 303h152l-307 -329l326 -369h-164l-281 333l-1 -1v-332h-120v698z" />
    <glyph glyph-name="L" unicode="L" horiz-adv-x="500" 
d="M85 698h120v-599h281v-99h-401v698z" />
    <glyph glyph-name="M" unicode="M" horiz-adv-x="944" 
d="M86 698h194l193 -554h1l190 554h195v-698h-117v590h-2l-210 -590h-116l-209 590l-2 -1v-589h-117v698z" />
    <glyph glyph-name="N" unicode="N" horiz-adv-x="722" 
d="M81 698h154l287 -542h2v542h117v-698h-149l-292 548h-2v-548h-117v698z" />
    <glyph glyph-name="O" unicode="O" horiz-adv-x="778" 
d="M208.5 32.5q-76.5 44.5 -117.5 126t-41 191.5q0 107 40 188.5t116.5 126.5t182.5 45q102 0 179 -44.5t118.5 -126t41.5 -189.5q0 -110 -41.5 -192t-118 -126t-179.5 -44q-104 0 -180.5 44.5zM505 121q48 34 72.5 93.5t24.5 135.5q0 70 -23.5 129.5t-71.5 95.5t-119 36
q-66 0 -114 -34.5t-73 -94t-25 -132.5q0 -117 56.5 -190t156.5 -73q68 0 116 34z" />
    <glyph glyph-name="P" unicode="P" 
d="M76 698h183q133 0 203.5 -53t70.5 -157q0 -105 -68.5 -160.5t-189.5 -55.5h-79v-272h-120v698zM269 371q64 0 101 29.5t37 84.5q0 54 -40.5 84t-105.5 30h-65v-228h73z" />
    <glyph glyph-name="Q" unicode="Q" horiz-adv-x="778" 
d="M434 -9q-15 -3 -43 -3q-110 0 -187 47t-115.5 129t-38.5 186q0 105 40 186.5t116.5 127.5t182.5 46q105 0 181.5 -45.5t117 -127t40.5 -187.5q0 -115 -47.5 -202t-134.5 -126l160 -153h-146zM509 123.5q48 36.5 70.5 96t22.5 130.5q0 67 -22.5 126t-70.5 97t-121 38
q-68 0 -115.5 -35t-72 -94.5t-24.5 -131.5q0 -73 23.5 -132.5t71.5 -95t118 -35.5q72 0 120 36.5z" />
    <glyph glyph-name="R" unicode="R" horiz-adv-x="611" 
d="M76 698h201q147 0 203.5 -49.5t56.5 -139.5q0 -61 -39 -105.5t-105 -54.5v-2q24 -5 41.5 -24t34.5 -57l117 -266h-135l-89 216q-14 35 -26.5 52t-30.5 24.5t-50 7.5h-59v-300h-120v698zM267 399q74 0 109 28.5t35 74.5q0 43 -31.5 70t-105.5 27h-78v-200h71z" />
    <glyph glyph-name="S" unicode="S" horiz-adv-x="528" 
d="M147.5 -5.5q-33.5 6.5 -85.5 21.5l12 110q37 -18 76.5 -28.5t74.5 -10.5q50 0 90.5 26.5t40.5 75.5q0 38 -28.5 64t-97.5 55q-57 25 -93.5 47.5t-60 60t-23.5 93.5q0 97 65 149t169 52q84 0 158 -25l-14 -103q-37 16 -68.5 22.5t-67.5 6.5q-52 0 -84 -24t-32 -71
q0 -27 17.5 -46t36.5 -29t70 -33q56 -24 92.5 -47t61.5 -63t25 -100q0 -101 -68.5 -155.5t-190.5 -54.5q-42 0 -75.5 6.5z" />
    <glyph glyph-name="T" unicode="T" 
d="M218 599h-208v99h537v-99h-209v-599h-120v599z" />
    <glyph glyph-name="U" unicode="U" horiz-adv-x="722" 
d="M152.5 61q-69.5 73 -69.5 208v429h120v-402q0 -209 158 -209t158 209v402h120v-430q0 -136 -70.5 -208t-207.5 -72q-139 0 -208.5 73z" />
    <glyph glyph-name="V" unicode="V" horiz-adv-x="667" 
d="M8 698h131l197 -579h2l199 579h122l-251 -698h-148z" />
    <glyph glyph-name="W" unicode="W" horiz-adv-x="1000" 
d="M6 698h129l148 -578h2l134 578h166l137 -578h2l149 578h121l-198 -698h-155l-139 584h-2l-138 -584h-158z" />
    <glyph glyph-name="X" unicode="X" horiz-adv-x="667" 
d="M252 363l-221 335h141l166 -258l167 258h132l-222 -334l243 -364h-145l-184 284l-181 -284h-139z" />
    <glyph glyph-name="Y" unicode="Y" horiz-adv-x="667" 
d="M275 284l-264 414h141l186 -303l186 303h132l-261 -414v-284h-120v284z" />
    <glyph glyph-name="Z" unicode="Z" 
d="M34 102l345 497h-332v99h464v-102l-346 -497h353v-99h-484v102z" />
    <glyph glyph-name="bracketleft" unicode="[" horiz-adv-x="333" 
d="M84 756h206v-84h-98v-728h98v-84h-206v896z" />
    <glyph glyph-name="backslash" unicode="\" horiz-adv-x="334" 
d="M-3 710h97l242 -722h-96z" />
    <glyph glyph-name="bracketright" unicode="]" horiz-adv-x="333" 
d="M43 -56h99v728h-99v84h207v-896h-207v84z" />
    <glyph glyph-name="asciicircum" unicode="^" horiz-adv-x="600" 
d="M256 698h88l193 -394h-97l-140 296l-140 -296h-97z" />
    <glyph glyph-name="underscore" unicode="_" horiz-adv-x="500" 
d="M0 -75h500v-50h-500v50z" />
    <glyph glyph-name="grave" unicode="`" horiz-adv-x="278" 
d="M18 710h123l86 -145h-75z" />
    <glyph glyph-name="a" unicode="a" 
d="M92 29.5q-51 41.5 -51 115.5q0 77 62.5 124.5t185.5 47.5l88 -1v2q0 65 -29.5 92.5t-91.5 27.5q-40 0 -80.5 -14t-72.5 -40l-5 97q38 20 83 32t91 12q111 0 162 -51t51 -163v-165q0 -75 6 -146h-103q-2 28 -2 47l-1 25h-2q-25 -40 -67 -62t-92 -22q-81 0 -132 41.5z
M340.5 111.5q36.5 36.5 36.5 103.5v26l-60 1q-77 0 -119.5 -23.5t-42.5 -70.5q0 -33 25.5 -53t65.5 -20q58 0 94.5 36.5z" />
    <glyph glyph-name="b" unicode="b" horiz-adv-x="611" 
d="M256.5 9q-43.5 21 -69.5 59h-2v-68h-110v750h114v-305h2q55 80 161 80q105 0 161.5 -72.5t56.5 -190.5q0 -119 -55 -196.5t-162 -77.5q-53 0 -96.5 21zM417.5 131.5q32.5 53.5 32.5 127.5q0 77 -32 126.5t-94 49.5q-43 0 -73.5 -25.5t-46 -66.5t-15.5 -86
q0 -72 34 -125.5t100 -53.5q62 0 94.5 53.5z" />
    <glyph glyph-name="c" unicode="c" horiz-adv-x="444" 
d="M158.5 22.5q-58.5 34.5 -90 96t-31.5 139.5q0 77 31 138t89 95t135 34q67 0 122 -19l-10 -92q-46 21 -96 21q-69 0 -110 -50.5t-41 -126.5q0 -77 40 -128.5t115 -51.5q23 0 50.5 7t51.5 20l6 -98q-53 -19 -125 -19q-78 0 -136.5 34.5z" />
    <glyph glyph-name="d" unicode="d" horiz-adv-x="611" 
d="M136 25.5q-49 37.5 -72 99.5t-23 137q0 116 56 189.5t162 73.5q107 0 162 -77h2v302h114v-750h-110v65h-2q-28 -38 -71 -57.5t-95 -19.5q-74 0 -123 37.5zM363.5 104.5q30.5 26.5 44.5 67.5t14 85t-14.5 84.5t-45 67t-76.5 26.5q-61 0 -93 -50.5t-32 -123.5
q0 -76 33 -129.5t94 -53.5q45 0 75.5 26.5z" />
    <glyph glyph-name="e" unicode="e" 
d="M110.5 59q-69.5 71 -69.5 201q0 75 28 135.5t82.5 95t128.5 34.5q120 0 177.5 -74.5t57.5 -225.5h-360q3 -68 47 -109t111 -41q42 0 86.5 15t77.5 37v-102q-44 -21 -83.5 -29t-84.5 -8q-129 0 -198.5 71zM401 306q-2 60 -33 96t-86 36q-53 0 -86.5 -35t-40.5 -97h246z
" />
    <glyph glyph-name="f" unicode="f" horiz-adv-x="389" 
d="M130 426h-110v87h110v61q0 188 168 188q40 0 80 -8l-8 -94q-21 12 -51 12q-40 0 -57.5 -23.5t-17.5 -72.5v-63h126v-87h-126v-426h-114v426z" />
    <glyph glyph-name="g" unicode="g" horiz-adv-x="611" 
d="M182 -214q-43 8 -93 27l10 100q93 -45 167 -45q81 0 119 48.5t38 133.5v31h-2q-26 -38 -70.5 -59.5t-95.5 -21.5q-104 0 -159 72t-55 184q0 69 25 130.5t75.5 100t122.5 38.5q115 0 163 -85h2v73h108v-478q0 -126 -66.5 -191.5t-200.5 -65.5q-45 0 -88 8zM387 137.5
q36 47.5 36 119.5q0 75 -33 126.5t-98 51.5q-62 0 -96.5 -51t-34.5 -126q0 -43 15.5 -82t44.5 -62.5t68 -23.5q62 0 98 47.5z" />
    <glyph glyph-name="h" unicode="h" horiz-adv-x="611" 
d="M75 750h114v-309h2q26 40 68 62t95 22q91 0 137 -55.5t46 -154.5v-315h-114v280q0 78 -23 116.5t-76 38.5q-71 0 -103 -56t-32 -135v-244h-114v750z" />
    <glyph glyph-name="i" unicode="i" horiz-adv-x="278" 
d="M79 734h120v-117h-120v117zM82 513h114v-513h-114v513z" />
    <glyph glyph-name="j" unicode="j" horiz-adv-x="278" 
d="M79 734h120v-117h-120v117zM-24 -216l3 90q17 -3 37 -3q66 0 66 101v541h114v-548q0 -99 -37.5 -143t-112.5 -44q-47 0 -70 6z" />
    <glyph glyph-name="k" unicode="k" 
d="M76 750h114v-443h2l182 206h143l-215 -228l242 -285h-153l-199 256l-2 -1v-255h-114v750z" />
    <glyph glyph-name="l" unicode="l" horiz-adv-x="278" 
d="M82 750h114v-750h-114v750z" />
    <glyph glyph-name="m" unicode="m" horiz-adv-x="889" 
d="M73 513h107v-73h2q55 85 158 85q51 0 89.5 -24t58.5 -71q21 43 65.5 69t94.5 26q84 0 126.5 -50t42.5 -148v-327h-114v314q0 121 -84 121q-58 0 -87.5 -49t-29.5 -132v-254h-114v314q0 121 -84 121q-57 0 -87 -49t-30 -131v-255h-114v513z" />
    <glyph glyph-name="n" unicode="n" horiz-adv-x="611" 
d="M75 513h109v-76h2q27 43 70.5 65.5t97.5 22.5q90 0 136.5 -55t46.5 -155v-315h-114v283q0 78 -24.5 115t-75.5 37q-66 0 -100 -52.5t-34 -138.5v-244h-114v513z" />
    <glyph glyph-name="o" unicode="o" horiz-adv-x="611" 
d="M167.5 23q-60.5 35 -93.5 96t-33 136q0 79 33.5 140.5t93.5 95.5t138 34q76 0 136 -33.5t94 -95t34 -141.5q0 -74 -33 -135t-93 -96.5t-139 -35.5q-77 0 -137.5 35zM413 129.5q37 51.5 37 133.5q0 46 -17 85.5t-50 63t-78 23.5q-44 0 -76.5 -24t-50 -63.5t-17.5 -84.5
q0 -82 37.5 -133.5t107.5 -51.5t107 51.5z" />
    <glyph glyph-name="p" unicode="p" horiz-adv-x="611" 
d="M75 513h109v-73h2q26 41 69 63t97 22q106 0 162 -73t56 -190q0 -119 -55 -196.5t-164 -77.5q-55 0 -93 18.5t-67 58.5h-2v-275h-114v723zM417.5 132q32.5 54 32.5 127q0 78 -33.5 127t-92.5 49q-44 0 -74.5 -26t-45.5 -67t-15 -85t14.5 -85t44.5 -67.5t75 -26.5
q62 0 94.5 54z" />
    <glyph glyph-name="q" unicode="q" horiz-adv-x="611" 
d="M423 63h-2q-55 -75 -161 -75q-107 0 -163 76.5t-56 197.5q0 118 57 190.5t163 72.5q55 0 97 -22t68 -63h2v73h109v-723h-114v273zM364.5 105q30.5 27 44 68t13.5 84q0 44 -15 85t-45.5 67t-75.5 26q-61 0 -93 -50.5t-32 -123.5q0 -78 33.5 -130.5t93.5 -52.5
q46 0 76.5 27z" />
    <glyph glyph-name="r" unicode="r" horiz-adv-x="389" 
d="M76 513h104v-98h2q14 43 52.5 76.5t85.5 33.5q24 0 50 -6v-109q-20 10 -56 10q-55 0 -89.5 -48.5t-34.5 -149.5v-222h-114v513z" />
    <glyph glyph-name="s" unicode="s" horiz-adv-x="417" 
d="M39 13l7 97q28 -16 61.5 -25.5t62.5 -9.5q37 0 64.5 16.5t27.5 51.5q0 26 -21.5 43t-72.5 36q-72 26 -102.5 59.5t-30.5 85.5q0 76 53.5 117t138.5 41q53 0 131 -20l-9 -91q-24 11 -54 17.5t-55 6.5q-38 0 -61.5 -16t-23.5 -44q0 -25 22 -41t72 -34q70 -25 101.5 -59.5
t31.5 -91.5q0 -77 -55 -120.5t-143 -43.5q-80 0 -145 25z" />
    <glyph glyph-name="t" unicode="t" horiz-adv-x="389" 
d="M159 30q-41 42 -41 115v281h-107v87h107v110l114 37v-147h127v-87h-127v-260q0 -40 18 -64t53 -24q36 0 62 16l2 -93q-42 -13 -89 -13q-78 0 -119 42z" />
    <glyph glyph-name="u" unicode="u" horiz-adv-x="611" 
d="M121.5 43q-46.5 55 -46.5 155v315h114v-285q0 -88 28 -119t71 -31q65 0 100 51.5t35 140.5v243h114v-513h-109v76h-2q-27 -41 -71 -64.5t-97 -23.5q-90 0 -136.5 55z" />
    <glyph glyph-name="v" unicode="v" horiz-adv-x="528" 
d="M12 513h123l133 -396h2l133 396h114l-187 -513h-131z" />
    <glyph glyph-name="w" unicode="w" horiz-adv-x="861" 
d="M12 513h122l116 -402h2l117 402h133l120 -402h2l116 402h110l-161 -513h-134l-122 411h-2l-119 -411h-131z" />
    <glyph glyph-name="x" unicode="x" horiz-adv-x="528" 
d="M190 269l-162 244h137l106 -175l106 175h124l-159 -244l177 -269h-138l-121 196l-121 -196h-129z" />
    <glyph glyph-name="y" unicode="y" horiz-adv-x="528" 
d="M40 -212l7 88q24 -8 56 -8q42 0 68.5 31t31.5 77q-3 11 -15 46l-179 491h126l130 -399h2l132 399h116l-209 -567q-31 -82 -72 -125t-116 -43q-38 0 -78 10z" />
    <glyph glyph-name="z" unicode="z" horiz-adv-x="500" 
d="M40 96l277 327h-265v90h399v-96l-275 -327h285v-90h-421v96z" />
    <glyph glyph-name="braceleft" unicode="{" horiz-adv-x="333" 
d="M150.5 -104q-38.5 36 -38.5 93v179q0 44 -23.5 72t-60.5 29v78q37 1 60.5 28t23.5 69v182q0 58 38.5 94t95.5 36h73v-75h-49q-27 0 -38.5 -17.5t-11.5 -54.5v-181q0 -47 -26.5 -79t-75.5 -40v-2q50 -5 76 -37.5t26 -86.5v-174q0 -40 11.5 -57t39.5 -17h48v-75h-75
q-55 0 -93.5 36z" />
    <glyph glyph-name="bar" unicode="|" horiz-adv-x="222" 
d="M63 750h96v-1000h-96v1000z" />
    <glyph glyph-name="braceright" unicode="}" horiz-adv-x="333" 
d="M15 -65h48q27 0 39 17.5t12 54.5v177q0 54 27 85t75 38v2q-48 6 -75 37.5t-27 84.5v177q0 39 -12 56t-40 17h-47v75h75q55 0 93.5 -35.5t38.5 -93.5v-181q0 -44 23 -71t61 -28v-78q-38 -1 -61 -28.5t-23 -70.5v-180q0 -58 -37.5 -94t-97.5 -36h-72v75z" />
    <glyph glyph-name="asciitilde" unicode="~" horiz-adv-x="600" 
d="M69 248q45 86 123 86q26 0 53.5 -7.5t63.5 -25.5q40 -20 62 -28t39 -8q22 0 41.5 17.5t43.5 55.5l36 -79q-48 -87 -120 -87q-24 0 -51 8t-71 30q-33 16 -55 23.5t-41 7.5q-25 0 -46 -16.5t-42 -55.5z" />
    <glyph glyph-name="uni00A0" unicode="&#xa0;" horiz-adv-x="278" 
 />
    <glyph glyph-name="exclamdown" unicode="&#xa1;" horiz-adv-x="389" 
d="M131 513h126v-126h-126v126zM145 312h99l17 -498h-133z" />
    <glyph glyph-name="cent" unicode="&#xa2;" 
d="M218 19q-62 32 -96 95t-34 144q0 75 30 135.5t87.5 96t137.5 35.5q17 0 26 -2l30 98h57l-31 -105q18 -2 39 -10l-10 -92q-30 13 -55 17l-101 -340q29 -13 64 -13q24 0 52 7t50 20l7 -98q-48 -19 -126 -19q-44 0 -75 10l-33 -110h-57zM342 434q-61 -5 -97.5 -54.5
t-36.5 -121.5q0 -41 11 -74.5t32 -56.5z" />
    <glyph glyph-name="sterling" unicode="&#xa3;" 
d="M57 96h89v240h-77v69h77v71q0 66 29 119.5t84 84t129 30.5q66 0 123 -18l-7 -101q-28 10 -50 15t-48 5q-69 0 -104.5 -40t-35.5 -108v-58h154v-69h-154v-240h235v-96h-444v96z" />
    <glyph glyph-name="currency" unicode="&#xa4;" 
d="M23 148l57 58q-48 62 -48 144q0 86 48 146l-57 56l55 55l56 -56q29 23 68 35t78 12q40 0 78 -12.5t68 -34.5l56 56l55 -55l-56 -56q23 -30 35 -67.5t12 -77.5q0 -83 -47 -145l56 -58l-55 -55l-56 58q-31 -24 -68.5 -36.5t-77.5 -12.5t-78 12.5t-68 36.5l-56 -58z
M355 216.5q34 21.5 54 57t20 76.5t-19.5 76.5t-54 57t-76.5 21.5q-40 0 -74 -21t-54 -56.5t-20 -77.5q0 -41 20 -77t54 -57t75 -21t75 21.5z" />
    <glyph glyph-name="yen" unicode="&#xa5;" 
d="M220 155h-144v69h144v60l-8 15h-136v69h101l-179 330h126l158 -310l156 310h121l-177 -330h99v-69h-136l-8 -15v-60h144v-69h-144v-155h-117v155z" />
    <glyph glyph-name="brokenbar" unicode="&#xa6;" horiz-adv-x="222" 
d="M63 675h96v-350h-96v350zM63 175h96v-350h-96v350z" />
    <glyph glyph-name="section" unicode="&#xa7;" 
d="M84 -103l9 103q81 -37 166 -37q53 0 82 21.5t29 58.5q0 27 -26 45.5t-86 38.5t-98.5 40.5t-61.5 51.5t-23 76q0 85 75 130q-36 22 -52.5 51t-16.5 68q0 53 30.5 90.5t79.5 56.5t105 19q58 0 151 -19l-10 -100q-65 26 -132 26q-52 0 -82.5 -18t-30.5 -54q0 -28 25 -48
t90 -41q92 -31 136 -66.5t44 -99.5q0 -79 -72 -127q31 -19 48.5 -49.5t17.5 -65.5q0 -56 -32 -96.5t-83.5 -61t-108.5 -20.5q-85 0 -173 27zM391 270q0 32 -26.5 53t-83.5 41q-59 21 -73 29q-18 -13 -27.5 -33.5t-9.5 -42.5q0 -30 28.5 -52.5t88.5 -43.5q57 -20 67 -26
q36 36 36 75z" />
    <glyph glyph-name="dieresis" unicode="&#xa8;" horiz-adv-x="278" 
d="M-6 691h105v-108h-105v108zM179 691h105v-108h-105v108z" />
    <glyph glyph-name="copyright" unicode="&#xa9;" horiz-adv-x="800" 
d="M39 350q0 96 48.5 179t131.5 132t181 49t181 -48.5t131.5 -131.5t48.5 -181t-48.5 -181t-131.5 -131.5t-181 -48.5q-97 0 -180 48.5t-132 131.5t-49 182zM534.5 100q60.5 37 95.5 102t35 147q0 80 -34.5 145.5t-95 103t-136.5 37.5q-73 0 -133.5 -37t-95.5 -102.5
t-35 -146.5q0 -82 35 -147.5t95.5 -102t134.5 -36.5t134.5 37zM305.5 162q-46.5 28 -72.5 77.5t-26 111.5t24.5 110.5t70 76.5t107.5 28q71 0 118.5 -40.5t56.5 -109.5h-76q-7 35 -34 55t-64 20q-55 0 -85.5 -38t-30.5 -101q0 -62 32 -102.5t86 -40.5q38 0 64.5 20.5
t31.5 58.5h78q-11 -70 -59 -112t-115 -42q-60 0 -106.5 28z" />
    <glyph glyph-name="ordfeminine" unicode="&#xaa;" horiz-adv-x="361" 
d="M63.5 409q-37.5 23 -37.5 70q0 51 43.5 79t130.5 28q30 0 47 -1q0 38 -19.5 52t-56.5 14q-58 0 -106 -32l-1 65q52 26 119 26q78 0 113 -29.5t35 -102.5v-83q0 -33 4 -101h-84l-1 40h-2q-26 -48 -96 -48q-51 0 -88.5 23zM226 464.5q22 19.5 22 52.5v15l-41 1
q-48 0 -72.5 -14t-24.5 -39q0 -18 16.5 -26.5t39.5 -8.5q38 0 60 19.5z" />
    <glyph glyph-name="guillemotleft" unicode="&#xab;" 
d="M50 269l131 204h107l-120 -204l120 -203h-107zM263 269l130 204h107l-120 -204l120 -203h-107z" />
    <glyph glyph-name="logicalnot" unicode="&#xac;" horiz-adv-x="600" 
d="M458 312h-411v96h507v-302h-96v206z" />
    <glyph glyph-name="uni00AD" unicode="&#xad;" horiz-adv-x="333" 
d="M37 316h260v-93h-260v93z" />
    <glyph glyph-name="registered" unicode="&#xae;" horiz-adv-x="800" 
d="M220 36.5q-83 48.5 -132 131.5t-49 182q0 96 48.5 179t131.5 132t181 49t181 -48.5t131.5 -131.5t48.5 -181t-48.5 -181t-131.5 -131.5t-181 -48.5q-97 0 -180 48.5zM534.5 100q60.5 37 95.5 102t35 147q0 80 -34.5 145.5t-95 103t-136.5 37.5q-73 0 -133.5 -37
t-95.5 -102.5t-35 -146.5q0 -82 35 -147.5t95.5 -102t134.5 -36.5t134.5 37zM258 553h153q78 0 116 -28.5t38 -91.5q0 -100 -106 -108l108 -177h-83l-101 173h-44v-173h-81v405zM412 383q38 0 55 13t17 44q0 26 -19.5 38.5t-59.5 12.5h-66v-108h73z" />
    <glyph glyph-name="macron" unicode="&#xaf;" horiz-adv-x="278" 
d="M-7 673h292v-69h-292v69z" />
    <glyph glyph-name="degree" unicode="&#xb0;" horiz-adv-x="400" 
d="M123 426q-35 20 -55 55t-20 77q0 41 20.5 76t55.5 55.5t76 20.5t76 -20.5t55.5 -55.5t20.5 -76q0 -42 -20 -77t-55 -55t-77 -20t-77 20zM260 498.5q24 23.5 24 59.5t-24 60t-60 24t-59.5 -24t-23.5 -60t23.5 -59.5t59.5 -23.5t60 23.5z" />
    <glyph glyph-name="plusminus" unicode="&#xb1;" horiz-adv-x="600" 
d="M252 271h-205v96h205v139h96v-139h206v-96h-206v-140h-96v140zM47 96h507v-96h-507v96z" />
    <glyph glyph-name="uni00B2" unicode="&#xb2;" horiz-adv-x="361" 
d="M31 507q81 55 137.5 118.5t56.5 99.5q0 25 -19.5 39t-52.5 14q-55 0 -103 -31l-7 80q59 29 129 29q73 0 114 -33t41 -89q0 -57 -52.5 -116t-128.5 -110v-2h185v-78h-300v79z" />
    <glyph glyph-name="uni00B3" unicode="&#xb3;" horiz-adv-x="361" 
d="M29 439l8 79q22 -9 48.5 -15t51.5 -6q38 0 66 13.5t28 38.5q0 28 -25 43t-62 15q-38 0 -52 -1v77l46 -1q40 0 65.5 15t25.5 38t-22 34.5t-55 11.5q-55 0 -103 -24l-4 77q60 22 125 22q67 0 112.5 -27.5t45.5 -80.5q0 -38 -24.5 -64t-67.5 -36v-2q46 -5 71.5 -32.5
t25.5 -67.5q0 -58 -48 -91t-137 -33q-54 0 -119 17z" />
    <glyph glyph-name="acute" unicode="&#xb4;" horiz-adv-x="278" 
d="M137 710h123l-134 -145h-75z" />
    <glyph glyph-name="uni00B5" unicode="&#xb5;" horiz-adv-x="611" 
d="M75 513h114v-281q0 -86 26 -120t73 -34q64 0 99.5 51t35.5 140v244h114v-513h-109v76h-2q-18 -39 -56.5 -63.5t-85.5 -24.5q-31 0 -53.5 6t-41.5 21v-225h-114v723z" />
    <glyph glyph-name="paragraph" unicode="&#xb6;" horiz-adv-x="610" 
d="M229 337q-102 1 -160 49.5t-58 128.5q0 92 59.5 137.5t175.5 45.5h285v-816h-96v741h-110v-741h-96v455z" />
    <glyph glyph-name="periodcentered" unicode="&#xb7;" horiz-adv-x="278" 
d="M90.5 246q-19.5 20 -19.5 48t19.5 48t49.5 20q29 0 48 -19t19 -49q0 -29 -19 -48.5t-48 -19.5q-30 0 -49.5 20z" />
    <glyph glyph-name="cedilla" unicode="&#xb8;" horiz-adv-x="278" 
d="M88 -201l19 44q40 -15 68 -15q24 0 39 10t15 30q0 18 -12.5 28t-32.5 10q-16 0 -41 -9l-16 23l61 80h55l-46 -57l2 -2q20 6 35 6q35 0 58.5 -19.5t23.5 -52.5q0 -45 -36.5 -71t-92.5 -26q-59 0 -99 21z" />
    <glyph glyph-name="uni00B9" unicode="&#xb9;" horiz-adv-x="361" 
d="M163 761l-73 -57l-43 54l125 92h87v-422h-96v333z" />
    <glyph glyph-name="ordmasculine" unicode="&#xba;" horiz-adv-x="397" 
d="M108 407.5q-40 21.5 -62 58.5t-22 83q0 47 23 83.5t62.5 57t89.5 20.5q77 0 125.5 -45t48.5 -116q0 -47 -22.5 -84t-62 -58t-89.5 -21q-51 0 -91 21.5zM261.5 471q21.5 26 21.5 77q0 46 -21 74.5t-62 28.5t-63.5 -27t-22.5 -76q0 -103 85 -103q41 0 62.5 26z" />
    <glyph glyph-name="guillemotright" unicode="&#xbb;" 
d="M176 269l-120 204h107l131 -204l-131 -203h-107zM389 269l-120 204h107l130 -204l-130 -203h-107z" />
    <glyph glyph-name="onequarter" unicode="&#xbc;" horiz-adv-x="834" 
d="M579 720h77l-425 -742h-77zM143 615l-73 -57l-43 53l125 93h87v-422h-96v333zM659 81h-207v73l182 268h121v-266h50v-75h-50v-81h-96v81zM659 156v185h-2l-121 -185h123z" />
    <glyph glyph-name="onehalf" unicode="&#xbd;" horiz-adv-x="834" 
d="M548 720h77l-425 -742h-77zM138 615l-73 -57l-43 53l125 93h87v-422h-96v333zM501 79q81 55 137.5 118.5t56.5 99.5q0 25 -19.5 39t-52.5 14q-55 0 -103 -31l-7 80q59 29 129 29q73 0 114 -33t41 -89q0 -57 -52.5 -116t-128.5 -110v-2h185v-78h-300v79z" />
    <glyph glyph-name="threequarters" unicode="&#xbe;" horiz-adv-x="834" 
d="M606 720h77l-425 -742h-77zM23 292l8 80q21 -10 48 -15.5t52 -5.5q38 0 66 13.5t28 38.5q0 28 -25 43t-62 15q-24 0 -52 -2v78q12 -1 46 -1q40 0 65.5 14.5t25.5 37.5t-22 35t-55 12q-55 0 -103 -24l-4 77q64 22 125 22q67 0 112.5 -28t45.5 -80q0 -39 -24.5 -65
t-67.5 -35v-2q46 -5 71.5 -32.5t25.5 -68.5q0 -58 -48 -90.5t-137 -32.5q-58 0 -119 16zM665 81h-207v73l182 268h121v-266h50v-75h-50v-81h-96v81zM665 156v185h-2l-121 -185h123z" />
    <glyph glyph-name="questiondown" unicode="&#xbf;" horiz-adv-x="500" 
d="M189 513h126v-126h-126v126zM144 -177q-51 21 -80.5 62t-29.5 97q0 47 22 85.5t71 92.5q40 44 55.5 72.5t15.5 62.5v18h109v-8q0 -45 -9.5 -76t-27 -55.5t-52.5 -63.5q-28 -30 -43 -57.5t-15 -58.5q0 -46 33 -71t86 -25q84 0 150 40l9 -103q-79 -33 -181 -33
q-62 0 -113 21z" />
    <glyph glyph-name="Agrave" unicode="&#xc0;" horiz-adv-x="722" 
d="M296 698h131l285 -698h-132l-66 168h-312l-66 -168h-125zM479 264l-120 317h-2l-119 -317h241zM229 885h123l86 -145h-75z" />
    <glyph glyph-name="Aacute" unicode="&#xc1;" horiz-adv-x="722" 
d="M296 698h131l285 -698h-132l-66 168h-312l-66 -168h-125zM479 264l-120 317h-2l-119 -317h241zM377 885h123l-134 -145h-75z" />
    <glyph glyph-name="Acircumflex" unicode="&#xc2;" horiz-adv-x="722" 
d="M296 698h131l285 -698h-132l-66 168h-312l-66 -168h-125zM479 264l-120 317h-2l-119 -317h241zM318 885h96l102 -145h-84l-67 92l-68 -92h-84z" />
    <glyph glyph-name="Atilde" unicode="&#xc3;" horiz-adv-x="722" 
d="M296 698h131l285 -698h-132l-66 168h-312l-66 -168h-125zM479 264l-120 317h-2l-119 -317h241zM221 834.5q27 32.5 67 32.5q20 0 39 -6t47 -18q24 -10 39 -15t31 -5q21 0 31.5 13.5t11.5 33.5h50q-4 -55 -29.5 -85.5t-65.5 -30.5q-23 0 -43 5.5t-45 16.5q-24 10 -38 14.5
t-29 4.5q-22 0 -33.5 -13t-13.5 -32h-50q4 52 31 84.5z" />
    <glyph glyph-name="Adieresis" unicode="&#xc4;" horiz-adv-x="722" 
d="M296 698h131l285 -698h-132l-66 168h-312l-66 -168h-125zM479 264l-120 317h-2l-119 -317h241zM219 867h106v-108h-106v108zM405 867h105v-108h-105v108z" />
    <glyph glyph-name="Aring" unicode="&#xc5;" horiz-adv-x="722" 
d="M296 698h131l285 -698h-132l-66 168h-312l-66 -168h-125zM479 264l-120 317h-2l-119 -317h241zM287.5 762.5q-30.5 30.5 -30.5 72.5t30.5 72.5t72.5 30.5q43 0 73 -30.5t30 -72.5t-30 -72.5t-73 -30.5q-42 0 -72.5 30.5zM399.5 795.5q16.5 16.5 16.5 39.5t-16.5 39.5
t-39.5 16.5q-24 0 -40 -16.5t-16 -39.5t16.5 -39.5t39.5 -16.5t39.5 16.5z" />
    <glyph glyph-name="AE" unicode="&#xc6;" horiz-adv-x="944" 
d="M408 698h469v-99h-274l13 -188h241v-99h-232l15 -213h244v-99h-358l-12 168h-282l-96 -168h-130zM507 264l-23 347h-2l-196 -347h221z" />
    <glyph glyph-name="Ccedilla" unicode="&#xc7;" horiz-adv-x="611" 
d="M261 -201l19 44q38 -15 67 -15q26 0 40.5 10.5t14.5 29.5q0 18 -12.5 28t-32.5 10q-18 0 -41 -9l-16 23l56 73q-146 19 -226 112t-80 240q0 110 46 193t131 127.5t199 44.5q86 0 158 -29l-9 -108q-65 38 -148 38q-75 0 -132 -34.5t-88 -94.5t-31 -134q0 -75 31.5 -134.5
t88.5 -93t130 -33.5q40 0 83.5 8.5t69.5 23.5l6 -107q-74 -24 -158 -24q-13 0 -20 1l-37 -46l2 -2q24 6 36 6q34 0 57.5 -19t23.5 -53q0 -47 -37 -72t-92 -25q-59 0 -99 21z" />
    <glyph glyph-name="Egrave" unicode="&#xc8;" 
d="M88 698h401v-99h-281v-188h257v-99h-257v-213h282v-99h-402v698zM144 885h123l86 -145h-75z" />
    <glyph glyph-name="Eacute" unicode="&#xc9;" 
d="M88 698h401v-99h-281v-188h257v-99h-257v-213h282v-99h-402v698zM292 885h123l-134 -145h-75z" />
    <glyph glyph-name="Ecircumflex" unicode="&#xca;" 
d="M88 698h401v-99h-281v-188h257v-99h-257v-213h282v-99h-402v698zM233 885h96l102 -145h-84l-67 92l-68 -92h-84z" />
    <glyph glyph-name="Edieresis" unicode="&#xcb;" 
d="M88 698h401v-99h-281v-188h257v-99h-257v-213h282v-99h-402v698zM134 867h106v-108h-106v108zM320 867h105v-108h-105v108z" />
    <glyph glyph-name="Igrave" unicode="&#xcc;" horiz-adv-x="278" 
d="M79 698h120v-698h-120v698zM6 885h123l86 -145h-75z" />
    <glyph glyph-name="Iacute" unicode="&#xcd;" horiz-adv-x="278" 
d="M79 698h120v-698h-120v698zM151 885h123l-134 -145h-75z" />
    <glyph glyph-name="Icircumflex" unicode="&#xce;" horiz-adv-x="278" 
d="M79 698h120v-698h-120v698zM93 885h96l102 -145h-84l-67 92l-68 -92h-84z" />
    <glyph glyph-name="Idieresis" unicode="&#xcf;" horiz-adv-x="278" 
d="M79 698h120v-698h-120v698zM-6 867h106v-108h-106v108zM180 867h105v-108h-105v108z" />
    <glyph glyph-name="Eth" unicode="&#xd0;" horiz-adv-x="722" 
d="M82 339h-66v75h66v284h200q119 0 205.5 -40t133.5 -118t47 -188q0 -173 -99 -262.5t-286 -89.5h-201v339zM295 99q70 0 125.5 27.5t88.5 84t33 139.5q0 74 -31.5 130.5t-87 87.5t-125.5 31h-96v-185h165v-75h-165v-240h93z" />
    <glyph glyph-name="Ntilde" unicode="&#xd1;" horiz-adv-x="722" 
d="M81 698h154l287 -542h2v542h117v-698h-149l-292 548h-2v-548h-117v698zM220 834.5q27 32.5 67 32.5q20 0 39 -6t47 -18q24 -10 39 -15t31 -5q21 0 31.5 13.5t11.5 33.5h50q-4 -55 -29.5 -85.5t-65.5 -30.5q-23 0 -43 5.5t-45 16.5q-24 10 -38 14.5t-29 4.5
q-22 0 -33.5 -13t-13.5 -32h-50q4 52 31 84.5z" />
    <glyph glyph-name="Ograve" unicode="&#xd2;" horiz-adv-x="778" 
d="M208.5 32.5q-76.5 44.5 -117.5 126t-41 191.5q0 107 40 188.5t116.5 126.5t182.5 45q102 0 179 -44.5t118.5 -126t41.5 -189.5q0 -110 -41.5 -192t-118 -126t-179.5 -44q-104 0 -180.5 44.5zM505 121q48 34 72.5 93.5t24.5 135.5q0 70 -23.5 129.5t-71.5 95.5t-119 36
q-66 0 -114 -34.5t-73 -94t-25 -132.5q0 -117 56.5 -190t156.5 -73q68 0 116 34zM258 885h123l86 -145h-75z" />
    <glyph glyph-name="Oacute" unicode="&#xd3;" horiz-adv-x="778" 
d="M208.5 32.5q-76.5 44.5 -117.5 126t-41 191.5q0 107 40 188.5t116.5 126.5t182.5 45q102 0 179 -44.5t118.5 -126t41.5 -189.5q0 -110 -41.5 -192t-118 -126t-179.5 -44q-104 0 -180.5 44.5zM505 121q48 34 72.5 93.5t24.5 135.5q0 70 -23.5 129.5t-71.5 95.5t-119 36
q-66 0 -114 -34.5t-73 -94t-25 -132.5q0 -117 56.5 -190t156.5 -73q68 0 116 34zM406 885h123l-134 -145h-75z" />
    <glyph glyph-name="Ocircumflex" unicode="&#xd4;" horiz-adv-x="778" 
d="M208.5 32.5q-76.5 44.5 -117.5 126t-41 191.5q0 107 40 188.5t116.5 126.5t182.5 45q102 0 179 -44.5t118.5 -126t41.5 -189.5q0 -110 -41.5 -192t-118 -126t-179.5 -44q-104 0 -180.5 44.5zM505 121q48 34 72.5 93.5t24.5 135.5q0 70 -23.5 129.5t-71.5 95.5t-119 36
q-66 0 -114 -34.5t-73 -94t-25 -132.5q0 -117 56.5 -190t156.5 -73q68 0 116 34zM346 885h96l102 -145h-84l-67 92l-68 -92h-84z" />
    <glyph glyph-name="Otilde" unicode="&#xd5;" horiz-adv-x="778" 
d="M208.5 32.5q-76.5 44.5 -117.5 126t-41 191.5q0 107 40 188.5t116.5 126.5t182.5 45q102 0 179 -44.5t118.5 -126t41.5 -189.5q0 -110 -41.5 -192t-118 -126t-179.5 -44q-104 0 -180.5 44.5zM505 121q48 34 72.5 93.5t24.5 135.5q0 70 -23.5 129.5t-71.5 95.5t-119 36
q-66 0 -114 -34.5t-73 -94t-25 -132.5q0 -117 56.5 -190t156.5 -73q68 0 116 34zM249 834.5q27 32.5 67 32.5q20 0 39 -6t47 -18q24 -10 39 -15t31 -5q21 0 31.5 13.5t11.5 33.5h50q-4 -55 -29.5 -85.5t-65.5 -30.5q-23 0 -43 5.5t-45 16.5q-24 10 -38 14.5t-29 4.5
q-22 0 -33.5 -13t-13.5 -32h-50q4 52 31 84.5z" />
    <glyph glyph-name="Odieresis" unicode="&#xd6;" horiz-adv-x="778" 
d="M208.5 32.5q-76.5 44.5 -117.5 126t-41 191.5q0 107 40 188.5t116.5 126.5t182.5 45q102 0 179 -44.5t118.5 -126t41.5 -189.5q0 -110 -41.5 -192t-118 -126t-179.5 -44q-104 0 -180.5 44.5zM505 121q48 34 72.5 93.5t24.5 135.5q0 70 -23.5 129.5t-71.5 95.5t-119 36
q-66 0 -114 -34.5t-73 -94t-25 -132.5q0 -117 56.5 -190t156.5 -73q68 0 116 34zM247 867h106v-108h-106v108zM433 867h105v-108h-105v108z" />
    <glyph glyph-name="multiply" unicode="&#xd7;" horiz-adv-x="600" 
d="M67 87l166 166l-166 166l67 67l166 -166l166 166l67 -67l-167 -166l167 -166l-67 -67l-166 167l-166 -167z" />
    <glyph glyph-name="Oslash" unicode="&#xd8;" horiz-adv-x="778" 
d="M89 6l58 75q-48 48 -72.5 116.5t-24.5 152.5q0 107 40.5 188.5t117 126.5t181.5 45q115 0 200 -57l54 69l40 -32l-54 -71q49 -49 74 -117.5t25 -151.5q0 -108 -40.5 -190t-117 -127t-181.5 -45q-121 0 -203 59l-56 -72zM521 564q-53 47 -131 47q-71 0 -119 -36.5
t-71.5 -96t-23.5 -128.5q0 -49 11.5 -93.5t33.5 -79.5zM507 122q48 35 71.5 95t23.5 134q0 49 -12 93.5t-35 78.5l-300 -387q54 -49 135 -49q69 0 117 35z" />
    <glyph glyph-name="Ugrave" unicode="&#xd9;" horiz-adv-x="722" 
d="M152.5 61q-69.5 73 -69.5 208v429h120v-402q0 -209 158 -209t158 209v402h120v-430q0 -136 -70.5 -208t-207.5 -72q-139 0 -208.5 73zM229 885h123l86 -145h-75z" />
    <glyph glyph-name="Uacute" unicode="&#xda;" horiz-adv-x="722" 
d="M152.5 61q-69.5 73 -69.5 208v429h120v-402q0 -209 158 -209t158 209v402h120v-430q0 -136 -70.5 -208t-207.5 -72q-139 0 -208.5 73zM377 885h123l-134 -145h-75z" />
    <glyph glyph-name="Ucircumflex" unicode="&#xdb;" horiz-adv-x="722" 
d="M152.5 61q-69.5 73 -69.5 208v429h120v-402q0 -209 158 -209t158 209v402h120v-430q0 -136 -70.5 -208t-207.5 -72q-139 0 -208.5 73zM317 885h96l102 -145h-84l-67 92l-68 -92h-84z" />
    <glyph glyph-name="Udieresis" unicode="&#xdc;" horiz-adv-x="722" 
d="M152.5 61q-69.5 73 -69.5 208v429h120v-402q0 -209 158 -209t158 209v402h120v-430q0 -136 -70.5 -208t-207.5 -72q-139 0 -208.5 73zM218 867h106v-108h-106v108zM404 867h105v-108h-105v108z" />
    <glyph glyph-name="Yacute" unicode="&#xdd;" horiz-adv-x="667" 
d="M275 284l-264 414h141l186 -303l186 303h132l-261 -414v-284h-120v284zM351 885h123l-134 -145h-75z" />
    <glyph glyph-name="Thorn" unicode="&#xde;" 
d="M76 698h120v-109h60q138 0 207.5 -53.5t69.5 -156.5q0 -105 -68.5 -160.5t-189.5 -55.5h-79v-163h-120v698zM270 262q64 0 100.5 29.5t36.5 84.5q0 54 -40.5 84t-105.5 30h-65v-228h74z" />
    <glyph glyph-name="germandbls" unicode="&#xdf;" horiz-adv-x="611" 
d="M251 7l2 91q36 -14 74 -14q54 0 89 34.5t35 102.5q0 63 -39.5 96t-129.5 33h-4v90h3q69 0 102.5 29.5t33.5 89.5q0 49 -27 81t-74 32q-63 0 -94.5 -48t-31.5 -121v-503h-114v492q0 131 62 200.5t183 69.5q56 0 105.5 -22.5t80 -65.5t30.5 -102q0 -65 -32 -108.5
t-93 -61.5v-2q47 -5 83 -31t56 -66.5t20 -86.5q0 -64 -28 -114.5t-79.5 -79t-120.5 -28.5q-46 0 -92 13z" />
    <glyph glyph-name="agrave" unicode="&#xe0;" 
d="M92 29.5q-51 41.5 -51 115.5q0 77 62.5 124.5t185.5 47.5l88 -1v2q0 65 -29.5 92.5t-91.5 27.5q-40 0 -80.5 -14t-72.5 -40l-5 97q38 20 83 32t91 12q111 0 162 -51t51 -163v-165q0 -75 6 -146h-103q-2 28 -2 47l-1 25h-2q-25 -40 -67 -62t-92 -22q-81 0 -132 41.5z
M340.5 111.5q36.5 36.5 36.5 103.5v26l-60 1q-77 0 -119.5 -23.5t-42.5 -70.5q0 -33 25.5 -53t65.5 -20q58 0 94.5 36.5zM136 710h123l86 -145h-75z" />
    <glyph glyph-name="aacute" unicode="&#xe1;" 
d="M92 29.5q-51 41.5 -51 115.5q0 77 62.5 124.5t185.5 47.5l88 -1v2q0 65 -29.5 92.5t-91.5 27.5q-40 0 -80.5 -14t-72.5 -40l-5 97q38 20 83 32t91 12q111 0 162 -51t51 -163v-165q0 -75 6 -146h-103q-2 28 -2 47l-1 25h-2q-25 -40 -67 -62t-92 -22q-81 0 -132 41.5z
M340.5 111.5q36.5 36.5 36.5 103.5v26l-60 1q-77 0 -119.5 -23.5t-42.5 -70.5q0 -33 25.5 -53t65.5 -20q58 0 94.5 36.5zM297 710h123l-134 -145h-75z" />
    <glyph glyph-name="acircumflex" unicode="&#xe2;" 
d="M92 29.5q-51 41.5 -51 115.5q0 77 62.5 124.5t185.5 47.5l88 -1v2q0 65 -29.5 92.5t-91.5 27.5q-40 0 -80.5 -14t-72.5 -40l-5 97q38 20 83 32t91 12q111 0 162 -51t51 -163v-165q0 -75 6 -146h-103q-2 28 -2 47l-1 25h-2q-25 -40 -67 -62t-92 -22q-81 0 -132 41.5z
M340.5 111.5q36.5 36.5 36.5 103.5v26l-60 1q-77 0 -119.5 -23.5t-42.5 -70.5q0 -33 25.5 -53t65.5 -20q58 0 94.5 36.5zM233 710h96l103 -145h-85l-67 92l-67 -92h-85z" />
    <glyph glyph-name="atilde" unicode="&#xe3;" 
d="M92 29.5q-51 41.5 -51 115.5q0 77 62.5 124.5t185.5 47.5l88 -1v2q0 65 -29.5 92.5t-91.5 27.5q-40 0 -80.5 -14t-72.5 -40l-5 97q38 20 83 32t91 12q111 0 162 -51t51 -163v-165q0 -75 6 -146h-103q-2 28 -2 47l-1 25h-2q-25 -40 -67 -62t-92 -22q-81 0 -132 41.5z
M340.5 111.5q36.5 36.5 36.5 103.5v26l-60 1q-77 0 -119.5 -23.5t-42.5 -70.5q0 -33 25.5 -53t65.5 -20q58 0 94.5 36.5zM137 662.5q27 32.5 67 32.5q20 0 39.5 -6t45.5 -18q23 -10 39 -15t31 -5q20 0 31 13.5t13 33.5h50q-4 -55 -29.5 -85.5t-66.5 -30.5q-23 0 -42 5.5
t-46 16.5q-24 10 -38 14.5t-29 4.5q-21 0 -33 -13t-13 -32h-51q5 52 32 84.5z" />
    <glyph glyph-name="adieresis" unicode="&#xe4;" 
d="M92 29.5q-51 41.5 -51 115.5q0 77 62.5 124.5t185.5 47.5l88 -1v2q0 65 -29.5 92.5t-91.5 27.5q-40 0 -80.5 -14t-72.5 -40l-5 97q38 20 83 32t91 12q111 0 162 -51t51 -163v-165q0 -75 6 -146h-103q-2 28 -2 47l-1 25h-2q-25 -40 -67 -62t-92 -22q-81 0 -132 41.5z
M340.5 111.5q36.5 36.5 36.5 103.5v26l-60 1q-77 0 -119.5 -23.5t-42.5 -70.5q0 -33 25.5 -53t65.5 -20q58 0 94.5 36.5zM135 691h105v-108h-105v108zM320 691h105v-108h-105v108z" />
    <glyph glyph-name="aring" unicode="&#xe5;" 
d="M92 29.5q-51 41.5 -51 115.5q0 77 62.5 124.5t185.5 47.5l88 -1v2q0 65 -29.5 92.5t-91.5 27.5q-40 0 -80.5 -14t-72.5 -40l-5 97q38 20 83 32t91 12q111 0 162 -51t51 -163v-165q0 -75 6 -146h-103q-2 28 -2 47l-1 25h-2q-25 -40 -67 -62t-92 -22q-81 0 -132 41.5z
M340.5 111.5q36.5 36.5 36.5 103.5v26l-60 1q-77 0 -119.5 -23.5t-42.5 -70.5q0 -33 25.5 -53t65.5 -20q58 0 94.5 36.5zM208 589.5q-31 30.5 -31 73.5t31 74t74 31t73.5 -31.5t30.5 -73.5t-30.5 -73t-73.5 -31t-74 30.5zM322 623.5q17 17.5 17 39.5q0 24 -17 41t-40 17
q-24 0 -41 -17t-17 -41q0 -23 17.5 -40t40.5 -17t40 17.5z" />
    <glyph glyph-name="ae" unicode="&#xe6;" horiz-adv-x="889" 
d="M96 30.5q-57 42.5 -57 115.5q0 83 66.5 127t189.5 44q24 0 66 -2l21 -1q0 124 -131 124q-35 0 -74 -13.5t-77 -40.5l-4 97q82 44 179 44q119 0 172 -77q57 77 177 77q112 0 169.5 -76t57.5 -224h-358q1 -67 45.5 -108.5t112.5 -41.5q77 0 156 53v-102q-76 -38 -161 -38
q-80 0 -136 27.5t-82 78.5h-2q-21 -50 -72.5 -78t-116.5 -28q-84 0 -141 42.5zM737 306q-1 57 -32.5 94.5t-83.5 37.5q-56 0 -92 -36.5t-36 -95.5h244zM344.5 118.5q37.5 43.5 37.5 121.5q-60 2 -72 2q-74 0 -115.5 -24.5t-41.5 -72.5q0 -31 24.5 -50.5t63.5 -19.5
q66 0 103.5 43.5z" />
    <glyph glyph-name="ccedilla" unicode="&#xe7;" horiz-adv-x="444" 
d="M158 -201l19 44q38 -15 67 -15q25 0 40 10.5t15 29.5q0 18 -12.5 28t-32.5 10q-17 0 -42 -9l-16 23l56 72q-99 13 -157 86.5t-58 179.5q0 76 30.5 136.5t88.5 95.5t136 35q67 0 122 -19l-10 -92q-46 21 -96 21q-69 0 -110 -50.5t-41 -126.5q0 -78 40 -129t115 -51
q23 0 50.5 7t51.5 20l6 -98q-42 -17 -116 -19l-37 -45l2 -2q24 6 35 6q34 0 58 -19t24 -53q0 -46 -37 -71.5t-92 -25.5q-59 0 -99 21z" />
    <glyph glyph-name="egrave" unicode="&#xe8;" 
d="M110.5 59q-69.5 71 -69.5 201q0 75 28 135.5t82.5 95t128.5 34.5q120 0 177.5 -74.5t57.5 -225.5h-360q3 -68 47 -109t111 -41q42 0 86.5 15t77.5 37v-102q-44 -21 -83.5 -29t-84.5 -8q-129 0 -198.5 71zM401 306q-2 60 -33 96t-86 36q-53 0 -86.5 -35t-40.5 -97h246z
M136 710h123l86 -145h-75z" />
    <glyph glyph-name="eacute" unicode="&#xe9;" 
d="M110.5 59q-69.5 71 -69.5 201q0 75 28 135.5t82.5 95t128.5 34.5q120 0 177.5 -74.5t57.5 -225.5h-360q3 -68 47 -109t111 -41q42 0 86.5 15t77.5 37v-102q-44 -21 -83.5 -29t-84.5 -8q-129 0 -198.5 71zM401 306q-2 60 -33 96t-86 36q-53 0 -86.5 -35t-40.5 -97h246z
M297 710h123l-134 -145h-75z" />
    <glyph glyph-name="ecircumflex" unicode="&#xea;" 
d="M110.5 59q-69.5 71 -69.5 201q0 75 28 135.5t82.5 95t128.5 34.5q120 0 177.5 -74.5t57.5 -225.5h-360q3 -68 47 -109t111 -41q42 0 86.5 15t77.5 37v-102q-44 -21 -83.5 -29t-84.5 -8q-129 0 -198.5 71zM401 306q-2 60 -33 96t-86 36q-53 0 -86.5 -35t-40.5 -97h246z
M233 710h96l103 -145h-85l-67 92l-67 -92h-85z" />
    <glyph glyph-name="edieresis" unicode="&#xeb;" 
d="M110.5 59q-69.5 71 -69.5 201q0 75 28 135.5t82.5 95t128.5 34.5q120 0 177.5 -74.5t57.5 -225.5h-360q3 -68 47 -109t111 -41q42 0 86.5 15t77.5 37v-102q-44 -21 -83.5 -29t-84.5 -8q-129 0 -198.5 71zM401 306q-2 60 -33 96t-86 36q-53 0 -86.5 -35t-40.5 -97h246z
M135 691h105v-108h-105v108zM320 691h105v-108h-105v108z" />
    <glyph glyph-name="igrave" unicode="&#xec;" horiz-adv-x="278" 
d="M82 513h114v-513h-114v513zM-5 710h123l86 -145h-75z" />
    <glyph glyph-name="iacute" unicode="&#xed;" horiz-adv-x="278" 
d="M82 513h114v-513h-114v513zM155 710h123l-134 -145h-75z" />
    <glyph glyph-name="icircumflex" unicode="&#xee;" horiz-adv-x="278" 
d="M82 513h114v-513h-114v513zM92 710h96l103 -145h-85l-67 92l-67 -92h-85z" />
    <glyph glyph-name="idieresis" unicode="&#xef;" horiz-adv-x="278" 
d="M82 513h114v-513h-114v513zM-6 691h105v-108h-105v108zM179 691h105v-108h-105v108z" />
    <glyph glyph-name="eth" unicode="&#xf0;" horiz-adv-x="611" 
d="M168.5 22.5q-60.5 34.5 -94 96t-33.5 138.5q0 74 30.5 133.5t87 94t130.5 34.5q59 0 102 -27h2q-39 66 -107 116l-111 -65l-48 50l96 57q-55 33 -112 53l67 60q70 -24 132 -62l107 62l48 -50l-93 -54q96 -74 146.5 -174t50.5 -216q0 -84 -32.5 -148t-92 -98.5
t-138.5 -34.5q-77 0 -137.5 34.5zM413 129.5q36 51.5 36 123.5q0 42 -16 83t-48.5 67t-78.5 26q-44 0 -77 -25t-50.5 -65.5t-17.5 -85.5q0 -44 15.5 -84t48 -65.5t81.5 -25.5q71 0 107 51.5z" />
    <glyph glyph-name="ntilde" unicode="&#xf1;" horiz-adv-x="611" 
d="M75 513h109v-76h2q27 43 70.5 65.5t97.5 22.5q90 0 136.5 -55t46.5 -155v-315h-114v283q0 78 -24.5 115t-75.5 37q-66 0 -100 -52.5t-34 -138.5v-244h-114v513zM165 662.5q27 32.5 67 32.5q20 0 39.5 -6t45.5 -18q23 -10 39 -15t31 -5q20 0 31 13.5t13 33.5h50
q-4 -55 -29.5 -85.5t-66.5 -30.5q-23 0 -42 5.5t-46 16.5q-24 10 -38 14.5t-29 4.5q-21 0 -33 -13t-13 -32h-51q5 52 32 84.5z" />
    <glyph glyph-name="ograve" unicode="&#xf2;" horiz-adv-x="611" 
d="M167.5 23q-60.5 35 -93.5 96t-33 136q0 79 33.5 140.5t93.5 95.5t138 34q76 0 136 -33.5t94 -95t34 -141.5q0 -74 -33 -135t-93 -96.5t-139 -35.5q-77 0 -137.5 35zM413 129.5q37 51.5 37 133.5q0 46 -17 85.5t-50 63t-78 23.5q-44 0 -76.5 -24t-50 -63.5t-17.5 -84.5
q0 -82 37.5 -133.5t107.5 -51.5t107 51.5zM165 710h123l86 -145h-75z" />
    <glyph glyph-name="oacute" unicode="&#xf3;" horiz-adv-x="611" 
d="M167.5 23q-60.5 35 -93.5 96t-33 136q0 79 33.5 140.5t93.5 95.5t138 34q76 0 136 -33.5t94 -95t34 -141.5q0 -74 -33 -135t-93 -96.5t-139 -35.5q-77 0 -137.5 35zM413 129.5q37 51.5 37 133.5q0 46 -17 85.5t-50 63t-78 23.5q-44 0 -76.5 -24t-50 -63.5t-17.5 -84.5
q0 -82 37.5 -133.5t107.5 -51.5t107 51.5zM325 710h123l-134 -145h-75z" />
    <glyph glyph-name="ocircumflex" unicode="&#xf4;" horiz-adv-x="611" 
d="M167.5 23q-60.5 35 -93.5 96t-33 136q0 79 33.5 140.5t93.5 95.5t138 34q76 0 136 -33.5t94 -95t34 -141.5q0 -74 -33 -135t-93 -96.5t-139 -35.5q-77 0 -137.5 35zM413 129.5q37 51.5 37 133.5q0 46 -17 85.5t-50 63t-78 23.5q-44 0 -76.5 -24t-50 -63.5t-17.5 -84.5
q0 -82 37.5 -133.5t107.5 -51.5t107 51.5zM261 710h96l103 -145h-85l-67 92l-67 -92h-85z" />
    <glyph glyph-name="otilde" unicode="&#xf5;" horiz-adv-x="611" 
d="M167.5 23q-60.5 35 -93.5 96t-33 136q0 79 33.5 140.5t93.5 95.5t138 34q76 0 136 -33.5t94 -95t34 -141.5q0 -74 -33 -135t-93 -96.5t-139 -35.5q-77 0 -137.5 35zM413 129.5q37 51.5 37 133.5q0 46 -17 85.5t-50 63t-78 23.5q-44 0 -76.5 -24t-50 -63.5t-17.5 -84.5
q0 -82 37.5 -133.5t107.5 -51.5t107 51.5zM165 662.5q27 32.5 67 32.5q20 0 39.5 -6t45.5 -18q23 -10 39 -15t31 -5q20 0 31 13.5t13 33.5h50q-4 -55 -29.5 -85.5t-66.5 -30.5q-23 0 -42 5.5t-46 16.5q-24 10 -38 14.5t-29 4.5q-21 0 -33 -13t-13 -32h-51q5 52 32 84.5z" />
    <glyph glyph-name="odieresis" unicode="&#xf6;" horiz-adv-x="611" 
d="M167.5 23q-60.5 35 -93.5 96t-33 136q0 79 33.5 140.5t93.5 95.5t138 34q76 0 136 -33.5t94 -95t34 -141.5q0 -74 -33 -135t-93 -96.5t-139 -35.5q-77 0 -137.5 35zM413 129.5q37 51.5 37 133.5q0 46 -17 85.5t-50 63t-78 23.5q-44 0 -76.5 -24t-50 -63.5t-17.5 -84.5
q0 -82 37.5 -133.5t107.5 -51.5t107 51.5zM163 691h105v-108h-105v108zM348 691h105v-108h-105v108z" />
    <glyph glyph-name="divide" unicode="&#xf7;" horiz-adv-x="600" 
d="M246 402q-22 22 -22 54q0 33 22 55t55 22t54.5 -22.5t21.5 -54.5q0 -31 -22 -53.5t-54 -22.5q-33 0 -55 22zM47 301h507v-96h-507v96zM246 -4.5q-22 22.5 -22 54.5q0 33 22 55t55 22t54.5 -22.5t21.5 -54.5q0 -31 -22 -54t-54 -23q-33 0 -55 22.5z" />
    <glyph glyph-name="oslash" unicode="&#xf8;" horiz-adv-x="611" 
d="M58 -4l57 69q-36 36 -55 85t-19 105q0 81 34.5 142.5t95 94.5t135.5 33q88 0 153 -44l54 65l35 -29l-54 -65q76 -74 76 -197q0 -75 -33 -136t-93.5 -96t-137.5 -35q-88 0 -156 47l-56 -68zM394 402q-37 33 -89 33q-44 0 -77 -24t-50 -63.5t-17 -84.5q0 -63 26 -111z
M413 130q37 52 37 133q0 60 -27 103l-209 -253q37 -35 92 -35q70 0 107 52z" />
    <glyph glyph-name="ugrave" unicode="&#xf9;" horiz-adv-x="611" 
d="M121.5 43q-46.5 55 -46.5 155v315h114v-285q0 -88 28 -119t71 -31q65 0 100 51.5t35 140.5v243h114v-513h-109v76h-2q-27 -41 -71 -64.5t-97 -23.5q-90 0 -136.5 55zM164 710h123l86 -145h-75z" />
    <glyph glyph-name="uacute" unicode="&#xfa;" horiz-adv-x="611" 
d="M121.5 43q-46.5 55 -46.5 155v315h114v-285q0 -88 28 -119t71 -31q65 0 100 51.5t35 140.5v243h114v-513h-109v76h-2q-27 -41 -71 -64.5t-97 -23.5q-90 0 -136.5 55zM325 710h123l-134 -145h-75z" />
    <glyph glyph-name="ucircumflex" unicode="&#xfb;" horiz-adv-x="611" 
d="M121.5 43q-46.5 55 -46.5 155v315h114v-285q0 -88 28 -119t71 -31q65 0 100 51.5t35 140.5v243h114v-513h-109v76h-2q-27 -41 -71 -64.5t-97 -23.5q-90 0 -136.5 55zM260 710h96l103 -145h-85l-67 92l-67 -92h-85z" />
    <glyph glyph-name="udieresis" unicode="&#xfc;" horiz-adv-x="611" 
d="M121.5 43q-46.5 55 -46.5 155v315h114v-285q0 -88 28 -119t71 -31q65 0 100 51.5t35 140.5v243h114v-513h-109v76h-2q-27 -41 -71 -64.5t-97 -23.5q-90 0 -136.5 55zM162 691h105v-108h-105v108zM347 691h105v-108h-105v108z" />
    <glyph glyph-name="yacute" unicode="&#xfd;" horiz-adv-x="528" 
d="M40 -212l7 88q24 -8 56 -8q42 0 68.5 31t31.5 77q-3 11 -15 46l-179 491h126l130 -399h2l132 399h116l-209 -567q-31 -82 -72 -125t-116 -43q-38 0 -78 10zM283 710h123l-134 -145h-75z" />
    <glyph glyph-name="thorn" unicode="&#xfe;" horiz-adv-x="611" 
d="M75 750h114v-306h2q24 39 65 60t96 21q105 0 161.5 -72.5t56.5 -190.5q0 -121 -55.5 -197.5t-161.5 -76.5q-110 0 -162 76h-2v-274h-114v960zM417 131.5q33 53.5 33 127.5q0 75 -32 125.5t-94 50.5q-43 0 -73.5 -25t-46 -66t-15.5 -87q0 -45 14.5 -86t45 -67t74.5 -26
q61 0 94 53.5z" />
    <glyph glyph-name="ydieresis" unicode="&#xff;" horiz-adv-x="528" 
d="M40 -212l7 88q24 -8 56 -8q42 0 68.5 31t31.5 77q-3 11 -15 46l-179 491h126l130 -399h2l132 399h116l-209 -567q-31 -82 -72 -125t-116 -43q-38 0 -78 10zM121 691h105v-108h-105v108zM306 691h105v-108h-105v108z" />
    <glyph glyph-name="Amacron" unicode="&#x100;" horiz-adv-x="722" 
d="M296 698h131l285 -698h-132l-66 168h-312l-66 -168h-125zM479 264l-120 317h-2l-119 -317h241zM216 847h293v-69h-293v69z" />
    <glyph glyph-name="amacron" unicode="&#x101;" 
d="M92 29.5q-51 41.5 -51 115.5q0 77 62.5 124.5t185.5 47.5l88 -1v2q0 65 -29.5 92.5t-91.5 27.5q-40 0 -80.5 -14t-72.5 -40l-5 97q38 20 83 32t91 12q111 0 162 -51t51 -163v-165q0 -75 6 -146h-103q-2 28 -2 47l-1 25h-2q-25 -40 -67 -62t-92 -22q-81 0 -132 41.5z
M340.5 111.5q36.5 36.5 36.5 103.5v26l-60 1q-77 0 -119.5 -23.5t-42.5 -70.5q0 -33 25.5 -53t65.5 -20q58 0 94.5 36.5zM134 673h292v-69h-292v69z" />
    <glyph glyph-name="Abreve" unicode="&#x102;" horiz-adv-x="722" 
d="M296 698h131l285 -698h-132l-66 168h-312l-66 -168h-125zM479 264l-120 317h-2l-119 -317h241zM252.5 781.5q-43.5 39.5 -48.5 104.5h56q18 -79 103 -79q86 0 103 79h56q-5 -66 -48 -105t-111 -39q-67 0 -110.5 39.5z" />
    <glyph glyph-name="abreve" unicode="&#x103;" 
d="M92 29.5q-51 41.5 -51 115.5q0 77 62.5 124.5t185.5 47.5l88 -1v2q0 65 -29.5 92.5t-91.5 27.5q-40 0 -80.5 -14t-72.5 -40l-5 97q38 20 83 32t91 12q111 0 162 -51t51 -163v-165q0 -75 6 -146h-103q-2 28 -2 47l-1 25h-2q-25 -40 -67 -62t-92 -22q-81 0 -132 41.5z
M340.5 111.5q36.5 36.5 36.5 103.5v26l-60 1q-77 0 -119.5 -23.5t-42.5 -70.5q0 -33 25.5 -53t65.5 -20q58 0 94.5 36.5zM168.5 604q-43.5 39 -48.5 105h56q8 -40 34.5 -59.5t68.5 -19.5t68.5 19.5t34.5 59.5h56q-6 -66 -49 -105t-110 -39t-110.5 39z" />
    <glyph glyph-name="Aogonek" unicode="&#x104;" horiz-adv-x="722" 
d="M495 -194q-23 22 -23 61q0 68 118 133h-10l-66 168h-312l-66 -168h-125l285 698h131l285 -698h-74q-47 -37 -66 -65.5t-19 -59.5q0 -22 10 -33t28 -11q16 0 30.5 9t24.5 22l36 -8q-21 -37 -48.5 -53.5t-72.5 -16.5q-43 0 -66 22zM479 264l-120 316h-2l-119 -316h241z" />
    <glyph glyph-name="aogonek" unicode="&#x105;" 
d="M317.5 -194q-22.5 22 -22.5 62q0 68 117 132h-24q-3 38 -3 72h-2q-23 -39 -66.5 -61.5t-92.5 -22.5q-81 0 -132 42t-51 115q0 82 65.5 127t185.5 45l85 -1q0 63 -27.5 92.5t-93.5 29.5q-41 0 -81.5 -14.5t-71.5 -39.5l-5 97q84 44 175 44q112 0 162 -53.5t50 -158.5v-132
q0 -119 6 -181h-30q-46 -36 -65.5 -64.5t-19.5 -59.5q0 -45 37 -45q15 0 30.5 8.5t25.5 22.5l36 -8q-20 -37 -47.5 -53.5t-72.5 -16.5t-67.5 22zM343.5 116.5q33.5 41.5 33.5 98.5v26l-63 1q-75 0 -117 -24t-42 -70q0 -32 25 -52.5t65 -20.5q65 0 98.5 41.5z" />
    <glyph glyph-name="Cacute" unicode="&#x106;" horiz-adv-x="611" 
d="M226 31q-85 43 -130.5 123.5t-45.5 190.5q0 111 46.5 193.5t131.5 127t198 44.5q87 0 158 -29l-9 -108q-65 38 -148 38q-74 0 -131 -34t-88.5 -94t-31.5 -135q0 -76 32 -135t88.5 -92.5t129.5 -33.5q40 0 83.5 8.5t69.5 23.5l6 -107q-74 -24 -159 -24q-115 0 -200 43z
M420 885h123l-134 -145h-75z" />
    <glyph glyph-name="cacute" unicode="&#x107;" horiz-adv-x="444" 
d="M158.5 22.5q-58.5 34.5 -90 96t-31.5 139.5q0 77 31 138t89 95t135 34q67 0 122 -19l-10 -92q-46 21 -96 21q-69 0 -110 -50.5t-41 -126.5q0 -77 40 -128.5t115 -51.5q23 0 50.5 7t51.5 20l6 -98q-53 -19 -125 -19q-78 0 -136.5 34.5zM303 710h123l-134 -145h-75z" />
    <glyph glyph-name="Ccaron" unicode="&#x10c;" horiz-adv-x="611" 
d="M226 31q-85 43 -130.5 123.5t-45.5 190.5q0 111 46.5 193.5t131.5 127t198 44.5q87 0 158 -29l-9 -108q-65 38 -148 38q-74 0 -131 -34t-88.5 -94t-31.5 -135q0 -76 32 -135t88.5 -92.5t129.5 -33.5q40 0 83.5 8.5t69.5 23.5l6 -107q-74 -24 -159 -24q-115 0 -200 43z
M239 885h85l68 -92l66 92h84l-102 -145h-96z" />
    <glyph glyph-name="ccaron" unicode="&#x10d;" horiz-adv-x="444" 
d="M158.5 22.5q-58.5 34.5 -90 96t-31.5 139.5q0 77 31 138t89 95t135 34q67 0 122 -19l-10 -92q-46 21 -96 21q-69 0 -110 -50.5t-41 -126.5q0 -77 40 -128.5t115 -51.5q23 0 50.5 7t51.5 20l6 -98q-53 -19 -125 -19q-78 0 -136.5 34.5zM125 710h85l68 -92l67 92h84
l-102 -145h-96z" />
    <glyph glyph-name="Dcaron" unicode="&#x10e;" horiz-adv-x="722" 
d="M82 698h200q119 0 205.5 -40t133.5 -118t47 -188q0 -173 -99 -262.5t-286 -89.5h-201v698zM295 99q70 0 125.5 27.5t88.5 84t33 139.5q0 74 -31.5 130.5t-87 87.5t-125.5 31h-96v-500h93zM166 885h85l68 -92l66 92h84l-102 -145h-96z" />
    <glyph glyph-name="dcaron" unicode="&#x10f;" horiz-adv-x="671" 
d="M136 25.5q-49 37.5 -72 99.5t-23 137q0 116 56 189.5t162 73.5q107 0 162 -77h2v302h114v-750h-110v65h-2q-28 -38 -71 -57.5t-95 -19.5q-74 0 -123 37.5zM363.5 104.5q30.5 26.5 44.5 67.5t14 85t-14.5 84.5t-45 67t-76.5 26.5q-61 0 -93 -50.5t-32 -123.5
q0 -76 33 -129.5t94 -53.5q45 0 75.5 26.5zM612 728h104l-52 -196h-70z" />
    <glyph glyph-name="Dcroat" unicode="&#x110;" horiz-adv-x="722" 
d="M82 339h-66v75h66v284h200q119 0 205.5 -40t133.5 -118t47 -188q0 -173 -99 -262.5t-286 -89.5h-201v339zM295 99q70 0 125.5 27.5t88.5 84t33 139.5q0 74 -31.5 130.5t-87 87.5t-125.5 31h-96v-185h165v-75h-165v-240h93z" />
    <glyph glyph-name="dcroat" unicode="&#x111;" horiz-adv-x="611" 
d="M136 25.5q-49 37.5 -72 99.5t-23 137q0 116 56 189.5t162 73.5q107 0 162 -77h2v153h-176v67h176v82h114v-82h80v-67h-80v-601h-110v65h-2q-28 -38 -71 -57.5t-95 -19.5q-74 0 -123 37.5zM363.5 104.5q30.5 26.5 44.5 67.5t14 85t-14.5 84.5t-45 67t-76.5 26.5
q-61 0 -93 -50.5t-32 -123.5q0 -76 33 -129.5t94 -53.5q45 0 75.5 26.5z" />
    <glyph glyph-name="Emacron" unicode="&#x112;" 
d="M88 698h401v-99h-281v-188h257v-99h-257v-213h282v-99h-402v698zM142 847h293v-69h-293v69z" />
    <glyph glyph-name="emacron" unicode="&#x113;" 
d="M110.5 59q-69.5 71 -69.5 201q0 75 28 135.5t82.5 95t128.5 34.5q120 0 177.5 -74.5t57.5 -225.5h-360q3 -68 47 -109t111 -41q42 0 86.5 15t77.5 37v-102q-44 -21 -83.5 -29t-84.5 -8q-129 0 -198.5 71zM401 306q-2 60 -33 96t-86 36q-53 0 -86.5 -35t-40.5 -97h246z
M141 673h292v-69h-292v69z" />
    <glyph glyph-name="Edotaccent" unicode="&#x116;" 
d="M88 698h401v-99h-281v-188h257v-99h-257v-213h282v-99h-402v698zM243 867h105v-108h-105v108z" />
    <glyph glyph-name="edotaccent" unicode="&#x117;" 
d="M110.5 59q-69.5 71 -69.5 201q0 75 28 135.5t82.5 95t128.5 34.5q120 0 177.5 -74.5t57.5 -225.5h-360q3 -68 47 -109t111 -41q42 0 86.5 15t77.5 37v-102q-44 -21 -83.5 -29t-84.5 -8q-129 0 -198.5 71zM401 306q-2 60 -33 96t-86 36q-53 0 -86.5 -35t-40.5 -97h246z
M237 691h105v-108h-105v108z" />
    <glyph glyph-name="Eogonek" unicode="&#x118;" 
d="M302 -194q-23 22 -23 63q0 65 117 131h-308v698h401v-99h-281v-188h257v-99h-257v-213h282v-99h-46q-46 -37 -65 -65.5t-19 -59.5q0 -44 37 -44q16 0 31.5 9.5t24.5 21.5l35 -8q-20 -37 -47.5 -53.5t-72.5 -16.5q-43 0 -66 22z" />
    <glyph glyph-name="eogonek" unicode="&#x119;" 
d="M211 -195.5q-24 20.5 -24 62.5q0 32 24 61.5t73 60.5q-125 6 -184 80.5t-59 191.5q0 67 25.5 127.5t80 98.5t135.5 38q119 0 176 -74t57 -226h-360q1 -45 23 -79t58 -52.5t77 -18.5t84.5 15t79.5 37v-102q-42 -19 -70.5 -26t-68.5 -10q-36 -32 -53 -58.5t-17 -54.5
q0 -45 38 -45q14 0 29 8t26 23l36 -8q-20 -37 -48 -53.5t-72 -16.5q-42 0 -66 20.5zM401 306q-1 57 -31 94.5t-88 37.5q-53 0 -86.5 -34.5t-40.5 -97.5h246z" />
    <glyph glyph-name="Ecaron" unicode="&#x11a;" 
d="M88 698h401v-99h-281v-188h257v-99h-257v-213h282v-99h-402v698zM137 885h85l68 -92l66 92h84l-102 -145h-96z" />
    <glyph glyph-name="ecaron" unicode="&#x11b;" 
d="M110.5 59q-69.5 71 -69.5 201q0 75 28 135.5t82.5 95t128.5 34.5q120 0 177.5 -74.5t57.5 -225.5h-360q3 -68 47 -109t111 -41q42 0 86.5 15t77.5 37v-102q-44 -21 -83.5 -29t-84.5 -8q-129 0 -198.5 71zM401 306q-2 60 -33 96t-86 36q-53 0 -86.5 -35t-40.5 -97h246z
M131 710h85l68 -92l67 92h84l-102 -145h-96z" />
    <glyph glyph-name="Gbreve" unicode="&#x11e;" horiz-adv-x="722" 
d="M226 31q-85 43 -130.5 123.5t-45.5 190.5t46 192.5t131.5 127.5t199.5 45q58 0 106 -7t98 -25l-8 -109q-77 42 -186 42q-78 0 -137 -33.5t-91.5 -93t-32.5 -136.5q0 -76 32 -135.5t89 -92.5t130 -33q55 0 101 11v197h-147v96h264v-369q-110 -34 -219 -34q-115 0 -200 43z
M296.5 781.5q-43.5 39.5 -48.5 104.5h56q18 -79 103 -79q86 0 103 79h56q-5 -66 -48 -105t-111 -39q-67 0 -110.5 39.5z" />
    <glyph glyph-name="gbreve" unicode="&#x11f;" horiz-adv-x="611" 
d="M182 -214q-43 8 -93 27l10 100q93 -45 167 -45q81 0 119 48.5t38 133.5v31h-2q-26 -38 -70.5 -59.5t-95.5 -21.5q-104 0 -159 72t-55 184q0 69 25 130.5t75.5 100t122.5 38.5q115 0 163 -85h2v73h108v-478q0 -126 -66.5 -191.5t-200.5 -65.5q-45 0 -88 8zM387 137.5
q36 47.5 36 119.5q0 75 -33 126.5t-98 51.5q-62 0 -96.5 -51t-34.5 -126q0 -43 15.5 -82t44.5 -62.5t68 -23.5q62 0 98 47.5zM195.5 604q-43.5 39 -48.5 105h56q8 -40 34.5 -59.5t68.5 -19.5t68.5 19.5t34.5 59.5h56q-6 -66 -49 -105t-110 -39t-110.5 39z" />
    <glyph glyph-name="Gcommaaccent" unicode="&#x122;" horiz-adv-x="722" 
d="M226 31q-85 43 -130.5 123.5t-45.5 190.5t46 192.5t131.5 127.5t199.5 45q58 0 106 -7t98 -25l-8 -109q-77 42 -186 42q-78 0 -137 -33.5t-91.5 -93t-32.5 -136.5q0 -76 32 -135.5t89 -92.5t130 -33q55 0 101 11v197h-147v96h264v-369q-110 -34 -219 -34q-115 0 -200 43z
M361 -72h111l-59 -150h-88z" />
    <glyph glyph-name="gcommaaccent" unicode="&#x123;" horiz-adv-x="611" 
d="M182 -214q-43 8 -93 27l10 100q93 -45 167 -45q81 0 119 48.5t38 133.5v31h-2q-26 -38 -70.5 -59.5t-95.5 -21.5q-104 0 -159 72t-55 184q0 69 25 130.5t75.5 100t122.5 38.5q115 0 163 -85h2v73h108v-478q0 -126 -66.5 -191.5t-200.5 -65.5q-45 0 -88 8zM387 137.5
q36 47.5 36 119.5q0 75 -33 126.5t-98 51.5q-62 0 -96.5 -51t-34.5 -126q0 -43 15.5 -82t44.5 -62.5t68 -23.5q62 0 98 47.5zM299 728h84l-35 -145h-107z" />
    <glyph glyph-name="Imacron" unicode="&#x12a;" horiz-adv-x="278" 
d="M79 698h120v-698h-120v698zM-8 847h293v-69h-293v69z" />
    <glyph glyph-name="imacron" unicode="&#x12b;" horiz-adv-x="278" 
d="M82 513h114v-513h-114v513zM-6 673h292v-69h-292v69z" />
    <glyph glyph-name="Iogonek" unicode="&#x12e;" horiz-adv-x="278" 
d="M53.5 -193q-22.5 23 -22.5 62q0 67 117 131h-69v698h120v-698q-47 -35 -67 -63t-20 -62q0 -22 10 -33t28 -11q16 0 30.5 8.5t24.5 22.5l36 -8q-20 -37 -47.5 -53.5t-73.5 -16.5q-44 0 -66.5 23z" />
    <glyph glyph-name="iogonek" unicode="&#x12f;" horiz-adv-x="278" 
d="M79 734h120v-117h-120v117zM51.5 -192.5q-21.5 23.5 -21.5 61.5q0 67 117 131h-65v513h114v-513q-45 -35 -65 -63.5t-20 -61.5q0 -44 37 -44q14 0 29 8t27 23l35 -8q-20 -37 -47.5 -53.5t-72.5 -16.5q-46 0 -67.5 23.5z" />
    <glyph glyph-name="Idotaccent" unicode="&#x130;" horiz-adv-x="278" 
d="M79 698h120v-698h-120v698zM86 867h105v-108h-105v108z" />
    <glyph glyph-name="dotlessi" unicode="&#x131;" horiz-adv-x="278" 
d="M82 513h114v-513h-114v513z" />
    <glyph glyph-name="Kcommaaccent" unicode="&#x136;" horiz-adv-x="667" 
d="M88 698h120v-303l275 303h152l-307 -329l326 -369h-164l-281 333l-1 -1v-332h-120v698zM302 -72h111l-59 -150h-88z" />
    <glyph glyph-name="kcommaaccent" unicode="&#x137;" 
d="M76 750h114v-443h2l182 206h143l-215 -228l242 -285h-153l-199 256l-2 -1v-255h-114v750zM246 -72h111l-59 -150h-88z" />
    <glyph glyph-name="Lacute" unicode="&#x139;" horiz-adv-x="500" 
d="M85 698h120v-599h281v-99h-401v698zM185 885h123l-134 -145h-75z" />
    <glyph glyph-name="lacute" unicode="&#x13a;" horiz-adv-x="278" 
d="M82 750h114v-750h-114v750zM157 925h123l-134 -145h-75z" />
    <glyph glyph-name="Lcommaaccent" unicode="&#x13b;" horiz-adv-x="500" 
d="M85 698h120v-599h281v-99h-401v698zM229 -72h111l-59 -150h-88z" />
    <glyph glyph-name="lcommaaccent" unicode="&#x13c;" horiz-adv-x="278" 
d="M82 750h114v-750h-114v750zM85 -72h111l-59 -150h-88z" />
    <glyph glyph-name="Lcaron" unicode="&#x13d;" horiz-adv-x="500" 
d="M85 698h120v-599h281v-99h-401v698zM305 728h104l-52 -196h-70z" />
    <glyph glyph-name="lcaron" unicode="&#x13e;" horiz-adv-x="331" 
d="M82 750h114v-750h-114v750zM272 728h104l-52 -196h-70z" />
    <glyph glyph-name="Lslash" unicode="&#x141;" horiz-adv-x="500" 
d="M85 240l-69 -41v82l69 41v376h120v-306l182 108v-82l-182 -108v-211h281v-99h-401v240z" />
    <glyph glyph-name="lslash" unicode="&#x142;" horiz-adv-x="278" 
d="M82 317l-68 -47v81l68 47v352h114v-275l68 47v-81l-68 -47v-394h-114v317z" />
    <glyph glyph-name="Nacute" unicode="&#x143;" horiz-adv-x="722" 
d="M81 698h154l287 -542h2v542h117v-698h-149l-292 548h-2v-548h-117v698zM410 885h123l-134 -145h-75z" />
    <glyph glyph-name="nacute" unicode="&#x144;" horiz-adv-x="611" 
d="M75 513h109v-76h2q27 43 70.5 65.5t97.5 22.5q90 0 136.5 -55t46.5 -155v-315h-114v283q0 78 -24.5 115t-75.5 37q-66 0 -100 -52.5t-34 -138.5v-244h-114v513zM344 710h123l-134 -145h-75z" />
    <glyph glyph-name="Ncommaaccent" unicode="&#x145;" horiz-adv-x="722" 
d="M81 698h154l287 -542h2v542h117v-698h-149l-292 548h-2v-548h-117v698zM329 -72h111l-59 -150h-88z" />
    <glyph glyph-name="ncommaaccent" unicode="&#x146;" horiz-adv-x="611" 
d="M75 513h109v-76h2q27 43 70.5 65.5t97.5 22.5q90 0 136.5 -55t46.5 -155v-315h-114v283q0 78 -24.5 115t-75.5 37q-66 0 -100 -52.5t-34 -138.5v-244h-114v513zM258 -72h111l-59 -150h-88z" />
    <glyph glyph-name="Ncaron" unicode="&#x147;" horiz-adv-x="722" 
d="M81 698h154l287 -542h2v542h117v-698h-149l-292 548h-2v-548h-117v698zM218 885h85l68 -92l66 92h84l-102 -145h-96z" />
    <glyph glyph-name="ncaron" unicode="&#x148;" horiz-adv-x="611" 
d="M75 513h109v-76h2q27 43 70.5 65.5t97.5 22.5q90 0 136.5 -55t46.5 -155v-315h-114v283q0 78 -24.5 115t-75.5 37q-66 0 -100 -52.5t-34 -138.5v-244h-114v513zM158 710h85l68 -92l67 92h84l-102 -145h-96z" />
    <glyph glyph-name="Omacron" unicode="&#x14c;" horiz-adv-x="778" 
d="M208.5 32.5q-76.5 44.5 -117.5 126t-41 191.5q0 107 40 188.5t116.5 126.5t182.5 45q102 0 179 -44.5t118.5 -126t41.5 -189.5q0 -110 -41.5 -192t-118 -126t-179.5 -44q-104 0 -180.5 44.5zM505 121q48 34 72.5 93.5t24.5 135.5q0 70 -23.5 129.5t-71.5 95.5t-119 36
q-66 0 -114 -34.5t-73 -94t-25 -132.5q0 -117 56.5 -190t156.5 -73q68 0 116 34zM247 847h293v-69h-293v69z" />
    <glyph glyph-name="omacron" unicode="&#x14d;" horiz-adv-x="611" 
d="M167.5 23q-60.5 35 -93.5 96t-33 136q0 79 33.5 140.5t93.5 95.5t138 34q76 0 136 -33.5t94 -95t34 -141.5q0 -74 -33 -135t-93 -96.5t-139 -35.5q-77 0 -137.5 35zM413 129.5q37 51.5 37 133.5q0 46 -17 85.5t-50 63t-78 23.5q-44 0 -76.5 -24t-50 -63.5t-17.5 -84.5
q0 -82 37.5 -133.5t107.5 -51.5t107 51.5zM160 673h292v-69h-292v69z" />
    <glyph glyph-name="Ohungarumlaut" unicode="&#x150;" horiz-adv-x="778" 
d="M208.5 32.5q-76.5 44.5 -117.5 126t-41 191.5q0 107 40 188.5t116.5 126.5t182.5 45q102 0 179 -44.5t118.5 -126t41.5 -189.5q0 -110 -41.5 -192t-118 -126t-179.5 -44q-104 0 -180.5 44.5zM505 121q48 34 72.5 93.5t24.5 135.5q0 70 -23.5 129.5t-71.5 95.5t-119 36
q-66 0 -114 -34.5t-73 -94t-25 -132.5q0 -117 56.5 -190t156.5 -73q68 0 116 34zM324 885h123l-134 -145h-75zM513 885h123l-134 -145h-75z" />
    <glyph glyph-name="ohungarumlaut" unicode="&#x151;" horiz-adv-x="611" 
d="M167.5 23q-60.5 35 -93.5 96t-33 136q0 79 33.5 140.5t93.5 95.5t138 34q76 0 136 -33.5t94 -95t34 -141.5q0 -74 -33 -135t-93 -96.5t-139 -35.5q-77 0 -137.5 35zM413 129.5q37 51.5 37 133.5q0 46 -17 85.5t-50 63t-78 23.5q-44 0 -76.5 -24t-50 -63.5t-17.5 -84.5
q0 -82 37.5 -133.5t107.5 -51.5t107 51.5zM246 710h123l-134 -145h-76zM435 710h123l-134 -145h-75z" />
    <glyph glyph-name="OE" unicode="&#x152;" horiz-adv-x="944" 
d="M146 88.5q-96 94.5 -96 263.5q0 110 46.5 189.5t133 121t202.5 41.5q35 0 103 -4l65 -2h283v-99h-271v-188h250v-99h-250v-213h276v-99h-285q-25 0 -49.5 -1t-44.5 -2q-50 -3 -88 -3q-179 0 -275 94.5zM492 99v500q-40 6 -68 6q-114 0 -181 -66.5t-67 -186.5
q0 -78 30.5 -136.5t87.5 -90.5t134 -32q33 0 64 6z" />
    <glyph glyph-name="oe" unicode="&#x153;" horiz-adv-x="944" 
d="M162 22.5q-59 34.5 -91 95t-32 137.5q0 75 32.5 137t92 97.5t136.5 35.5q65 0 116.5 -24t80.5 -70q26 45 74 69.5t107 24.5q116 0 172 -77t56 -223h-349q1 -67 44 -108.5t111 -41.5q38 0 76 14t71 38l2 -102q-69 -37 -153 -37q-156 0 -210 98q-26 -46 -77.5 -72
t-121.5 -26q-78 0 -137 34.5zM405 127q38 52 38 128t-37 129.5t-106 53.5q-44 0 -76 -25.5t-48.5 -67.5t-16.5 -90q0 -79 35.5 -129.5t105.5 -50.5q67 0 105 52zM792 306q-2 58 -32.5 95t-81.5 37q-52 0 -86 -37t-35 -95h235z" />
    <glyph glyph-name="Racute" unicode="&#x154;" horiz-adv-x="611" 
d="M76 698h201q147 0 203.5 -49.5t56.5 -139.5q0 -61 -39 -105.5t-105 -54.5v-2q24 -5 41.5 -24t34.5 -57l117 -266h-135l-89 216q-14 35 -26.5 52t-30.5 24.5t-50 7.5h-59v-300h-120v698zM267 399q74 0 109 28.5t35 74.5q0 43 -31.5 70t-105.5 27h-78v-200h71zM309 885h123
l-134 -145h-75z" />
    <glyph glyph-name="racute" unicode="&#x155;" horiz-adv-x="389" 
d="M76 513h104v-98h2q14 43 52.5 76.5t85.5 33.5q24 0 50 -6v-109q-20 10 -56 10q-55 0 -89.5 -48.5t-34.5 -149.5v-222h-114v513zM260 710h123l-134 -145h-75z" />
    <glyph glyph-name="Rcommaaccent" unicode="&#x156;" horiz-adv-x="611" 
d="M76 698h201q147 0 203.5 -49.5t56.5 -139.5q0 -61 -39 -105.5t-105 -54.5v-2q24 -5 41.5 -24t34.5 -57l117 -266h-135l-89 216q-14 35 -26.5 52t-30.5 24.5t-50 7.5h-59v-300h-120v698zM267 399q74 0 109 28.5t35 74.5q0 43 -31.5 70t-105.5 27h-78v-200h71zM258 -72h111
l-59 -150h-88z" />
    <glyph glyph-name="rcommaaccent" unicode="&#x157;" horiz-adv-x="389" 
d="M76 513h104v-98h2q14 43 52.5 76.5t85.5 33.5q24 0 50 -6v-109q-20 10 -56 10q-55 0 -89.5 -48.5t-34.5 -149.5v-222h-114v513zM78 -72h111l-59 -150h-88z" />
    <glyph glyph-name="Rcaron" unicode="&#x158;" horiz-adv-x="611" 
d="M76 698h201q147 0 203.5 -49.5t56.5 -139.5q0 -61 -39 -105.5t-105 -54.5v-2q24 -5 41.5 -24t34.5 -57l117 -266h-135l-89 216q-14 35 -26.5 52t-30.5 24.5t-50 7.5h-59v-300h-120v698zM267 399q74 0 109 28.5t35 74.5q0 43 -31.5 70t-105.5 27h-78v-200h71zM132 885h85
l68 -92l66 92h84l-102 -145h-96z" />
    <glyph glyph-name="rcaron" unicode="&#x159;" horiz-adv-x="389" 
d="M76 513h104v-98h2q14 43 52.5 76.5t85.5 33.5q24 0 50 -6v-109q-20 10 -56 10q-55 0 -89.5 -48.5t-34.5 -149.5v-222h-114v513zM78 710h85l68 -92l67 92h84l-102 -145h-96z" />
    <glyph glyph-name="Sacute" unicode="&#x15a;" horiz-adv-x="528" 
d="M147.5 -5.5q-33.5 6.5 -85.5 21.5l12 110q37 -18 76.5 -28.5t74.5 -10.5q50 0 90.5 26.5t40.5 75.5q0 38 -28.5 64t-97.5 55q-57 25 -93.5 47.5t-60 60t-23.5 93.5q0 97 65 149t169 52q84 0 158 -25l-14 -103q-37 16 -68.5 22.5t-67.5 6.5q-52 0 -84 -24t-32 -71
q0 -27 17.5 -46t36.5 -29t70 -33q56 -24 92.5 -47t61.5 -63t25 -100q0 -101 -68.5 -155.5t-190.5 -54.5q-42 0 -75.5 6.5zM305 885h123l-134 -145h-75z" />
    <glyph glyph-name="sacute" unicode="&#x15b;" horiz-adv-x="417" 
d="M39 13l7 97q28 -16 61.5 -25.5t62.5 -9.5q37 0 64.5 16.5t27.5 51.5q0 26 -21.5 43t-72.5 36q-72 26 -102.5 59.5t-30.5 85.5q0 76 53.5 117t138.5 41q53 0 131 -20l-9 -91q-24 11 -54 17.5t-55 6.5q-38 0 -61.5 -16t-23.5 -44q0 -25 22 -41t72 -34q70 -25 101.5 -59.5
t31.5 -91.5q0 -77 -55 -120.5t-143 -43.5q-80 0 -145 25zM247 710h123l-134 -145h-75z" />
    <glyph glyph-name="Scedilla" unicode="&#x15e;" horiz-adv-x="528" 
d="M131 -195l18 45q15 -6 36.5 -11t37.5 -5q51 0 51 37q0 16 -12.5 25.5t-32.5 9.5q-18 0 -42 -10l-17 24l52 68q-37 0 -69.5 5.5t-90.5 22.5l12 110q81 -39 151 -39q50 0 90.5 26.5t40.5 75.5q0 38 -28.5 64t-97.5 55q-57 25 -93.5 47.5t-60 60t-23.5 93.5q0 97 65 149
t169 52q84 0 158 -25l-14 -103q-37 16 -68.5 22.5t-67.5 6.5q-52 0 -84 -24t-32 -71q0 -27 17.5 -46t36.5 -29t70 -33q56 -24 92.5 -47t61.5 -63t25 -100q0 -91 -53 -142t-150 -65l-38 -47l2 -2q18 5 34 5q37 0 60.5 -20t23.5 -52q0 -43 -35.5 -67t-89.5 -24q-65 0 -105 21z
" />
    <glyph glyph-name="scedilla" unicode="&#x15f;" horiz-adv-x="417" 
d="M79 -195l18 45q42 -16 74 -16q51 0 51 37q0 16 -13 25.5t-31 9.5q-21 0 -43 -10l-17 24l52 68q-76 3 -131 25l7 97q28 -16 61.5 -25.5t62.5 -9.5q38 0 65 17t27 51q0 26 -21.5 43t-72.5 36q-72 26 -102.5 59.5t-30.5 85.5q0 76 53.5 117t138.5 41q53 0 131 -20l-9 -91
q-24 11 -54 17.5t-55 6.5q-38 0 -61.5 -16t-23.5 -44q0 -25 22 -41t72 -34q70 -25 101.5 -59.5t31.5 -91.5q0 -67 -40 -108t-115 -53l-38 -47l2 -2q20 5 34 5q35 0 59.5 -19t24.5 -53q0 -44 -36 -67.5t-91 -23.5q-61 0 -103 21z" />
    <glyph glyph-name="Scaron" unicode="&#x160;" horiz-adv-x="528" 
d="M147.5 -5.5q-33.5 6.5 -85.5 21.5l12 110q37 -18 76.5 -28.5t74.5 -10.5q50 0 90.5 26.5t40.5 75.5q0 38 -28.5 64t-97.5 55q-57 25 -93.5 47.5t-60 60t-23.5 93.5q0 97 65 149t169 52q84 0 158 -25l-14 -103q-37 16 -68.5 22.5t-67.5 6.5q-52 0 -84 -24t-32 -71
q0 -27 17.5 -46t36.5 -29t70 -33q56 -24 92.5 -47t61.5 -63t25 -100q0 -101 -68.5 -155.5t-190.5 -54.5q-42 0 -75.5 6.5zM114 885h85l68 -92l66 92h84l-102 -145h-96z" />
    <glyph glyph-name="scaron" unicode="&#x161;" horiz-adv-x="417" 
d="M39 13l7 97q28 -16 61.5 -25.5t62.5 -9.5q37 0 64.5 16.5t27.5 51.5q0 26 -21.5 43t-72.5 36q-72 26 -102.5 59.5t-30.5 85.5q0 76 53.5 117t138.5 41q53 0 131 -20l-9 -91q-24 11 -54 17.5t-55 6.5q-38 0 -61.5 -16t-23.5 -44q0 -25 22 -41t72 -34q70 -25 101.5 -59.5
t31.5 -91.5q0 -77 -55 -120.5t-143 -43.5q-80 0 -145 25zM57 710h85l68 -92l67 92h84l-102 -145h-96z" />
    <glyph glyph-name="uni0162" unicode="&#x162;" 
d="M218 599h-208v99h537v-99h-209v-599h-120v599zM224 -72h111l-59 -150h-88z" />
    <glyph glyph-name="uni0163" unicode="&#x163;" horiz-adv-x="389" 
d="M159 30q-41 42 -41 115v281h-107v87h107v110l114 37v-147h127v-87h-127v-260q0 -40 18 -64t53 -24q36 0 62 16l2 -93q-42 -13 -89 -13q-78 0 -119 42zM164 -72h111l-59 -150h-88z" />
    <glyph glyph-name="Tcaron" unicode="&#x164;" 
d="M218 599h-208v99h537v-99h-209v-599h-120v599zM127 885h85l68 -92l66 92h84l-102 -145h-96z" />
    <glyph glyph-name="tcaron" unicode="&#x165;" horiz-adv-x="397" 
d="M309 728h101l-48 -176h-70zM159 30q-41 42 -41 115v281h-107v87h107v110l114 37v-147h127v-87h-127v-260q0 -40 18 -64t53 -24q36 0 62 16l2 -93q-42 -13 -89 -13q-78 0 -119 42z" />
    <glyph glyph-name="Umacron" unicode="&#x16a;" horiz-adv-x="722" 
d="M152.5 61q-69.5 73 -69.5 208v429h120v-402q0 -209 158 -209t158 209v402h120v-430q0 -136 -70.5 -208t-207.5 -72q-139 0 -208.5 73zM217 847h293v-69h-293v69z" />
    <glyph glyph-name="umacron" unicode="&#x16b;" horiz-adv-x="611" 
d="M121.5 43q-46.5 55 -46.5 155v315h114v-285q0 -88 28 -119t71 -31q65 0 100 51.5t35 140.5v243h114v-513h-109v76h-2q-27 -41 -71 -64.5t-97 -23.5q-90 0 -136.5 55zM161 673h292v-69h-292v69z" />
    <glyph glyph-name="Uring" unicode="&#x16e;" horiz-adv-x="722" 
d="M152.5 61q-69.5 73 -69.5 208v429h120v-402q0 -209 158 -209t158 209v402h120v-430q0 -136 -70.5 -208t-207.5 -72q-139 0 -208.5 73zM293.5 757.5q-30.5 30.5 -30.5 72.5t30.5 72.5t72.5 30.5q43 0 73 -30.5t30 -72.5t-30 -72.5t-73 -30.5q-42 0 -72.5 30.5z
M405.5 790.5q16.5 16.5 16.5 39.5t-16.5 39.5t-39.5 16.5q-24 0 -40 -16.5t-16 -39.5t16.5 -39.5t39.5 -16.5t39.5 16.5z" />
    <glyph glyph-name="uring" unicode="&#x16f;" horiz-adv-x="611" 
d="M121.5 43q-46.5 55 -46.5 155v315h114v-285q0 -88 28 -119t71 -31q65 0 100 51.5t35 140.5v243h114v-513h-109v76h-2q-27 -41 -71 -64.5t-97 -23.5q-90 0 -136.5 55zM233 595.5q-31 30.5 -31 73.5t31 74t74 31t73.5 -31.5t30.5 -73.5t-30.5 -73t-73.5 -31t-74 30.5z
M347 629.5q17 17.5 17 39.5q0 24 -17 41t-40 17q-24 0 -41 -17t-17 -41q0 -23 17.5 -40t40.5 -17t40 17.5z" />
    <glyph glyph-name="Uhungarumlaut" unicode="&#x170;" horiz-adv-x="722" 
d="M152.5 61q-69.5 73 -69.5 208v429h120v-402q0 -209 158 -209t158 209v402h120v-430q0 -136 -70.5 -208t-207.5 -72q-139 0 -208.5 73zM298 885h123l-134 -145h-75zM487 885h123l-134 -145h-75z" />
    <glyph glyph-name="uhungarumlaut" unicode="&#x171;" horiz-adv-x="611" 
d="M121.5 43q-46.5 55 -46.5 155v315h114v-285q0 -88 28 -119t71 -31q65 0 100 51.5t35 140.5v243h114v-513h-109v76h-2q-27 -41 -71 -64.5t-97 -23.5q-90 0 -136.5 55zM243 710h123l-134 -145h-76zM432 710h123l-134 -145h-75z" />
    <glyph glyph-name="Uogonek" unicode="&#x172;" horiz-adv-x="722" 
d="M289 -194.5q-23 21.5 -23 63.5q0 29 24.5 60t71.5 59h-6q-136 0 -204.5 74t-68.5 211v425h120v-403q0 -208 158 -208t158 207v404h120v-426q0 -118 -53 -192t-165 -88q-42 -35 -58 -62t-16 -55q0 -23 10.5 -33.5t26.5 -10.5q32 0 56 31l36 -8q-20 -36 -47.5 -53
t-72.5 -17q-44 0 -67 21.5z" />
    <glyph glyph-name="uogonek" unicode="&#x173;" horiz-adv-x="611" 
d="M355 -195q-24 21 -24 63q0 35 29 67t88 65h-20v76h-2q-26 -42 -70.5 -65t-97.5 -23q-90 0 -136.5 54.5t-46.5 154.5v316h114v-282q0 -83 24.5 -118t74.5 -35q66 0 100.5 52t34.5 139v244h114v-513h-40q-46 -36 -65.5 -65t-19.5 -60q0 -22 10 -33t28 -11q15 0 30.5 9.5
t24.5 21.5l36 -8q-20 -36 -47.5 -53t-72.5 -17q-42 0 -66 21z" />
    <glyph glyph-name="Ydieresis" unicode="&#x178;" horiz-adv-x="667" 
d="M275 284l-264 414h141l186 -303l186 303h132l-261 -414v-284h-120v284zM188 867h106v-108h-106v108zM374 867h105v-108h-105v108z" />
    <glyph glyph-name="Zacute" unicode="&#x179;" 
d="M34 102l345 497h-332v99h464v-102l-346 -497h353v-99h-484v102zM320 885h123l-134 -145h-75z" />
    <glyph glyph-name="zacute" unicode="&#x17a;" horiz-adv-x="500" 
d="M40 96l277 327h-265v90h399v-96l-275 -327h285v-90h-421v96zM291 710h123l-134 -145h-75z" />
    <glyph glyph-name="Zdotaccent" unicode="&#x17b;" 
d="M34 102l345 497h-332v99h464v-102l-346 -497h353v-99h-484v102zM240 867h105v-108h-105v108z" />
    <glyph glyph-name="zdotaccent" unicode="&#x17c;" horiz-adv-x="500" 
d="M40 96l277 327h-265v90h399v-96l-275 -327h285v-90h-421v96zM211 691h105v-108h-105v108z" />
    <glyph glyph-name="Zcaron" unicode="&#x17d;" 
d="M34 102l345 497h-332v99h464v-102l-346 -497h353v-99h-484v102zM127 885h85l68 -92l66 92h84l-102 -145h-96z" />
    <glyph glyph-name="zcaron" unicode="&#x17e;" horiz-adv-x="500" 
d="M40 96l277 327h-265v90h399v-96l-275 -327h285v-90h-421v96zM98 710h85l68 -92l67 92h84l-102 -145h-96z" />
    <glyph glyph-name="florin" unicode="&#x192;" 
d="M21 -215l18 90q17 -4 40 -4q32 0 50.5 20t27.5 67l73 377h-113l15 75h112l25 120q12 58 32 97t57.5 61t98.5 22q37 0 78 -8l-16 -93q-30 8 -49 8q-40 0 -56.5 -23t-27.5 -71l-23 -113h123l-13 -75h-125l-66 -351q-12 -65 -30 -108.5t-55 -70.5t-100 -27q-48 0 -76 7z" />
    <glyph glyph-name="Scommaaccent" unicode="&#x218;" horiz-adv-x="528" 
d="M147.5 -5.5q-33.5 6.5 -85.5 21.5l12 110q37 -18 76.5 -28.5t74.5 -10.5q50 0 90.5 26.5t40.5 75.5q0 38 -28.5 64t-97.5 55q-57 25 -93.5 47.5t-60 60t-23.5 93.5q0 97 65 149t169 52q84 0 158 -25l-14 -103q-37 16 -68.5 22.5t-67.5 6.5q-52 0 -84 -24t-32 -71
q0 -27 17.5 -46t36.5 -29t70 -33q56 -24 92.5 -47t61.5 -63t25 -100q0 -101 -68.5 -155.5t-190.5 -54.5q-42 0 -75.5 6.5zM209 -72h111l-59 -150h-88z" />
    <glyph glyph-name="scommaaccent" unicode="&#x219;" horiz-adv-x="417" 
d="M39 13l7 97q28 -16 61.5 -25.5t62.5 -9.5q37 0 64.5 16.5t27.5 51.5q0 26 -21.5 43t-72.5 36q-72 26 -102.5 59.5t-30.5 85.5q0 76 53.5 117t138.5 41q53 0 131 -20l-9 -91q-24 11 -54 17.5t-55 6.5q-38 0 -61.5 -16t-23.5 -44q0 -25 22 -41t72 -34q70 -25 101.5 -59.5
t31.5 -91.5q0 -77 -55 -120.5t-143 -43.5q-80 0 -145 25zM157 -72h111l-59 -150h-88z" />
    <glyph glyph-name="uni021A" unicode="&#x21a;" 
d="M218 599h-208v99h537v-99h-209v-599h-120v599zM224 -72h111l-59 -150h-88z" />
    <glyph glyph-name="uni021B" unicode="&#x21b;" horiz-adv-x="389" 
d="M159 30q-41 42 -41 115v281h-107v87h107v110l114 37v-147h127v-87h-127v-260q0 -40 18 -64t53 -24q36 0 62 16l2 -93q-42 -13 -89 -13q-78 0 -119 42zM164 -72h111l-59 -150h-88z" />
    <glyph glyph-name="circumflex" unicode="&#x2c6;" horiz-adv-x="278" 
d="M92 710h96l103 -145h-85l-67 92l-67 -92h-85z" />
    <glyph glyph-name="caron" unicode="&#x2c7;" horiz-adv-x="278" 
d="M-13 710h85l68 -92l67 92h84l-102 -145h-96z" />
    <glyph glyph-name="uni02C9" unicode="&#x2c9;" horiz-adv-x="278" 
d="M-7 673h292v-69h-292v69z" />
    <glyph glyph-name="breve" unicode="&#x2d8;" horiz-adv-x="278" 
d="M28.5 604q-43.5 39 -48.5 105h56q8 -40 34.5 -59.5t68.5 -19.5t68.5 19.5t34.5 59.5h56q-6 -66 -49 -105t-110 -39t-110.5 39z" />
    <glyph glyph-name="dotaccent" unicode="&#x2d9;" horiz-adv-x="278" 
d="M87 691h105v-108h-105v108z" />
    <glyph glyph-name="ring" unicode="&#x2da;" horiz-adv-x="278" 
d="M66 595.5q-31 30.5 -31 73.5t31 74t74 31t73.5 -31.5t30.5 -73.5t-30.5 -73t-73.5 -31t-74 30.5zM180 629.5q17 17.5 17 39.5q0 24 -17 41t-40 17q-24 0 -41 -17t-17 -41q0 -23 17.5 -40t40.5 -17t40 17.5z" />
    <glyph glyph-name="ogonek" unicode="&#x2db;" horiz-adv-x="278" 
d="M87.5 -194q-22.5 22 -22.5 60q0 71 117 134h48q-43 -34 -63.5 -63t-20.5 -60q0 -23 9.5 -34.5t26.5 -11.5q32 0 57 31l35 -8q-21 -39 -49 -54.5t-72 -15.5q-43 0 -65.5 22z" />
    <glyph glyph-name="tilde" unicode="&#x2dc;" horiz-adv-x="278" 
d="M-3 662.5q27 32.5 67 32.5q20 0 39.5 -6t45.5 -18q23 -10 39 -15t31 -5q20 0 31 13.5t13 33.5h50q-4 -55 -29.5 -85.5t-66.5 -30.5q-23 0 -42 5.5t-46 16.5q-24 10 -38 14.5t-29 4.5q-21 0 -33 -13t-13 -32h-51q5 52 32 84.5z" />
    <glyph glyph-name="hungarumlaut" unicode="&#x2dd;" horiz-adv-x="278" 
d="M43 710h123l-134 -145h-76zM232 710h123l-134 -145h-75z" />
    <glyph glyph-name="uni0394" unicode="&#x394;" horiz-adv-x="719" 
d="M294 698h134l277 -698h-691zM535 99l-177 492h-2l-180 -492h359z" />
    <glyph glyph-name="uni03A9" unicode="&#x3a9;" horiz-adv-x="772" 
d="M57 99h137q-71 54 -104 121t-33 152q0 96 41 173t116 121t174 44q95 0 168 -42.5t113 -116.5t40 -168q0 -86 -36.5 -161.5t-101.5 -122.5h144v-99h-278l3 99q143 87 143 268q0 72 -24 127.5t-68 86t-104 30.5q-94 0 -149 -66.5t-55 -181.5q0 -84 36 -152t103 -112l3 -99
h-268v99z" />
    <glyph glyph-name="uni03BC" unicode="&#x3bc;" horiz-adv-x="611" 
d="M75 513h114v-281q0 -86 26 -120t73 -34q64 0 99.5 51t35.5 140v244h114v-513h-109v76h-2q-18 -39 -56.5 -63.5t-85.5 -24.5q-31 0 -53.5 6t-41.5 21v-225h-114v723z" />
    <glyph glyph-name="pi" unicode="&#x3c0;" horiz-adv-x="637" 
d="M426 22q-32 34 -32 107v297h-179v-426h-114v426h-90v87h587v-87h-90v-288q0 -63 46 -63q13 0 22.5 2.5t23.5 9.5l4 -85q-40 -14 -75 -14q-71 0 -103 34z" />
    <glyph glyph-name="uni1E9E" unicode="&#x1e9e;" horiz-adv-x="673" 
d="M272 15l12 107q27 -17 63.5 -26t68.5 -9q49 0 75.5 24.5t26.5 71.5q0 32 -19 55.5t-65 61.5l-17 14q-55 46 -79.5 83t-24.5 86q0 44 32.5 79.5t84.5 50.5q-42 4 -70 4q-81 0 -120.5 -39.5t-39.5 -120.5v-457h-120v475q0 126 68 180.5t202 54.5q51 0 112.5 -4t105.5 -10
v-92q-54 -3 -94 -30.5t-40 -71.5q0 -23 12 -42.5t29 -35.5t53 -47q59 -50 87.5 -91t28.5 -99q0 -95 -61 -147t-161 -52q-84 0 -150 27z" />
    <glyph glyph-name="uni2010" unicode="&#x2010;" horiz-adv-x="333" 
d="M37 316h260v-93h-260v93z" />
    <glyph glyph-name="endash" unicode="&#x2013;" horiz-adv-x="500" 
d="M0 310h500v-81h-500v81z" />
    <glyph glyph-name="emdash" unicode="&#x2014;" horiz-adv-x="1000" 
d="M0 310h1000v-81h-1000v81z" />
    <glyph glyph-name="quoteleft" unicode="&#x2018;" horiz-adv-x="278" 
d="M131 698h104l-63 -247h-129z" />
    <glyph glyph-name="quoteright" unicode="&#x2019;" horiz-adv-x="278" 
d="M106 698h129l-90 -247h-102z" />
    <glyph glyph-name="quotesinglbase" unicode="&#x201a;" horiz-adv-x="278" 
d="M107 126h128l-88 -248h-104z" />
    <glyph glyph-name="quotedblleft" unicode="&#x201c;" horiz-adv-x="519" 
d="M154 698h103l-62 -247h-130zM349 698h105l-64 -247h-128z" />
    <glyph glyph-name="quotedblright" unicode="&#x201d;" horiz-adv-x="519" 
d="M129 698h128l-88 -247h-104zM325 698h129l-89 -247h-103z" />
    <glyph glyph-name="quotedblbase" unicode="&#x201e;" horiz-adv-x="519" 
d="M129 126h128l-88 -248h-104zM325 126h129l-89 -248h-103z" />
    <glyph glyph-name="dagger" unicode="&#x2020;" 
d="M224 444h-161v87h161v167h108v-167h161v-87h-161v-444h-108v444z" />
    <glyph glyph-name="daggerdbl" unicode="&#x2021;" 
d="M224 155h-161v84h161v223h-161v84h161v152h108v-152h161v-84h-161v-223h161v-84h-161v-155h-108v155z" />
    <glyph glyph-name="bullet" unicode="&#x2022;" horiz-adv-x="500" 
d="M163 197.5q-40 23.5 -63.5 63.5t-23.5 88q0 47 23 87t63 63.5t88 23.5q47 0 87.5 -23t64 -63t23.5 -88q0 -47 -23.5 -87.5t-63.5 -64t-88 -23.5q-47 0 -87 23.5z" />
    <glyph glyph-name="ellipsis" unicode="&#x2026;" horiz-adv-x="1000" 
d="M104 126h126v-126h-126v126zM437 126h126v-126h-126v126zM770 126h126v-126h-126v126z" />
    <glyph glyph-name="perthousand" unicode="&#x2030;" horiz-adv-x="1000" 
d="M507 720h77l-431 -742h-77zM43.5 385q-37.5 48 -37.5 140q0 95 36 140t110 45q75 0 110.5 -46t35.5 -139q0 -91 -37 -139.5t-109 -48.5q-71 0 -108.5 48zM196.5 439q11.5 31 11.5 89t-11.5 84.5t-45.5 26.5q-32 0 -43.5 -29t-11.5 -85q0 -68 14 -92.5t42 -24.5
q33 0 44.5 31zM403.5 36q-37.5 48 -37.5 140q0 95 36 140t110 45q75 0 110.5 -46t35.5 -139q0 -91 -37 -139.5t-109 -48.5q-71 0 -108.5 48zM740.5 36q-37.5 48 -37.5 140q0 95 36 140t110 45q75 0 110.5 -46t35.5 -139q0 -91 -37 -139.5t-109 -48.5q-71 0 -108.5 48z
M556.5 90q11.5 31 11.5 89t-11.5 84.5t-45.5 26.5q-32 0 -43.5 -29t-11.5 -85q0 -68 14 -92.5t42 -24.5q33 0 44.5 31zM893.5 90q11.5 31 11.5 89t-11.5 84.5t-45.5 26.5q-32 0 -43.5 -29t-11.5 -85q0 -68 14 -92.5t42 -24.5q33 0 44.5 31z" />
    <glyph glyph-name="guilsinglleft" unicode="&#x2039;" horiz-adv-x="306" 
d="M35 269l130 204h107l-120 -204l120 -203h-107z" />
    <glyph glyph-name="guilsinglright" unicode="&#x203a;" horiz-adv-x="306" 
d="M154 269l-120 204h107l130 -204l-130 -203h-107z" />
    <glyph glyph-name="fraction" unicode="&#x2044;" horiz-adv-x="167" 
d="M258 720h77l-426 -742h-77z" />
    <glyph glyph-name="Euro" unicode="&#x20ac;" 
d="M208.5 59q-87.5 71 -113.5 192h-97l14 58h75q-2 20 -2 43q0 22 2 38h-89l14 57h84q17 78 63.5 137.5t115.5 92.5t152 33q90 0 159 -26l-23 -94q-23 12 -56 19t-65 7q-78 0 -134.5 -44t-80.5 -125h306l-14 -57h-306q-2 -18 -2 -38q0 -29 2 -43h288l-13 -58h-261
q23 -78 79.5 -122t135.5 -44q70 0 121 24l6 -100q-54 -21 -141 -21q-132 0 -219.5 71z" />
    <glyph glyph-name="uni20B9" unicode="&#x20b9;" 
d="M53 308v87h109q72 0 109 18t42 71h-260v69h257q-9 44 -45 60t-94 16h-118v69h496v-69h-157q34 -27 42 -76h116v-69h-114q-7 -91 -64.5 -130t-161.5 -39h-25l271 -315h-150z" />
    <glyph glyph-name="uni20BA" unicode="&#x20ba;" 
d="M107 0v295l-90 -36v73l90 36v78l-90 -36v71l90 36v181h120v-133l193 77v-72l-193 -77v-78l193 77v-72l-193 -77v-258q7 -1 19 -1q69 0 104.5 36t47.5 93.5t15 146.5h122q-4 -177 -70.5 -272.5t-221.5 -95.5q-53 0 -136 8z" />
    <glyph glyph-name="uni20BC" unicode="&#x20bc;" horiz-adv-x="810" 
d="M37 63q0 117 33.5 230t103.5 191t173 89v125h116v-125q103 -11 173 -89t103.5 -191t33.5 -230v-63h-120v45q0 84 -18.5 180.5t-61.5 170.5t-110 86v-412h-116v412q-68 -12 -110.5 -85.5t-61 -169.5t-18.5 -182v-45h-120v63z" />
    <glyph glyph-name="uni20BD" unicode="&#x20bd;" 
d="M112 146h-91v83h91v61h-91v83h91v325h197q240 0 240 -207q0 -98 -66.5 -149.5t-172.5 -51.5h-78v-61h164v-83h-164v-146h-120v146zM296 373q66 0 99 28t33 90q0 63 -33 90.5t-100 27.5h-63v-236h64z" />
    <glyph glyph-name="uni2113" unicode="&#x2113;" horiz-adv-x="497" 
d="M160.5 22.5q-36.5 36.5 -36.5 96.5v93l-58 -59l-34 50l92 84v255q0 77 40.5 128t104.5 51q55 0 88.5 -36.5t33.5 -98.5q0 -73 -43.5 -150t-133.5 -164v-139q0 -38 18.5 -59t51.5 -21q43 0 89 39l32 -47q-65 -59 -142 -59q-66 0 -102.5 36.5zM291 466q26 60 26 114
q0 36 -13.5 58t-35.5 22q-24 0 -39 -28t-15 -74v-208q51 56 77 116z" />
    <glyph glyph-name="trademark" unicode="&#x2122;" horiz-adv-x="995" 
d="M51 623v75h335v-75h-122v-341h-90v341h-123zM855 588l-111 -306h-69l-111 306h-2v-306h-87v416h131l104 -270l103 270h131v-416h-87v306h-2z" />
    <glyph glyph-name="uni2126" unicode="&#x2126;" horiz-adv-x="772" 
d="M57 99h137q-71 54 -104 121t-33 152q0 96 41 173t116 121t174 44q95 0 168 -42.5t113 -116.5t40 -168q0 -86 -36.5 -161.5t-101.5 -122.5h144v-99h-278l3 99q143 87 143 268q0 72 -24 127.5t-68 86t-104 30.5q-94 0 -149 -66.5t-55 -181.5q0 -84 36 -152t103 -112l3 -99
h-268v99z" />
    <glyph glyph-name="estimated" unicode="&#x212e;" horiz-adv-x="600" 
d="M168 19q-59 36 -91.5 99t-32.5 141t32.5 141t91 99t134.5 36q75 0 133.5 -34t92 -97t33.5 -145h-404v-181q59 -59 145 -59q64 0 110 29t83 91l35 -21q-45 -72 -98 -103.5t-130 -31.5q-75 0 -134 36zM448 295v145q-63 60 -148 60q-83 0 -143 -60v-145h291z" />
    <glyph glyph-name="partialdiff" unicode="&#x2202;" horiz-adv-x="561" 
d="M132 25.5q-46 33.5 -69 87.5t-23 114q0 74 28.5 133t77 92t108.5 33q47 0 88.5 -23.5t65.5 -62.5h1q1 12 1 36q0 70 -22 130t-62.5 96t-92.5 36q-73 0 -130 -48l-32 78q74 57 176 57q73 0 133 -43.5t96 -128.5t36 -206q0 -124 -32.5 -217.5t-93.5 -145t-145 -51.5
q-63 0 -109 33.5zM348.5 146q40.5 66 49.5 160q-14 39 -48 66.5t-77 27.5q-36 0 -65.5 -24t-46.5 -64.5t-17 -87.5q0 -62 29.5 -103t77.5 -41q57 0 97.5 66z" />
    <glyph glyph-name="uni2206" unicode="&#x2206;" horiz-adv-x="719" 
d="M294 698h134l277 -698h-691zM535 99l-177 492h-2l-180 -492h359z" />
    <glyph glyph-name="product" unicode="&#x220f;" horiz-adv-x="721" 
d="M44 786h597v-1000h-93v915h-411v-915h-93v1000z" />
    <glyph glyph-name="summation" unicode="&#x2211;" horiz-adv-x="629" 
d="M25 -139l314 430l-300 421v74h552v-85h-430l290 -410l-308 -421h461v-84h-579v75z" />
    <glyph glyph-name="minus" unicode="&#x2212;" horiz-adv-x="600" 
d="M47 301h507v-96h-507v96z" />
    <glyph glyph-name="uni2215" unicode="&#x2215;" horiz-adv-x="167" 
d="M258 720h77l-426 -742h-77z" />
    <glyph glyph-name="uni2219" unicode="&#x2219;" horiz-adv-x="278" 
d="M90.5 246q-19.5 20 -19.5 48t19.5 48t49.5 20q29 0 48 -19t19 -49q0 -29 -19 -48.5t-48 -19.5q-30 0 -49.5 20z" />
    <glyph glyph-name="radical" unicode="&#x221a;" horiz-adv-x="518" 
d="M72 113l-48 -23l-35 73l128 58l142 -299l177 864h93l-211 -1000h-88z" />
    <glyph glyph-name="infinity" unicode="&#x221e;" horiz-adv-x="791" 
d="M495 117.5q-46 26.5 -99 83.5l-28 -25q-47 -45 -84 -64.5t-80 -19.5q-71 0 -114 46.5t-43 117.5q0 72 43 119t112 47q47 0 92 -26.5t102 -89.5q53 57 96 87.5t95 30.5q71 0 113.5 -47t42.5 -118q0 -75 -43 -121.5t-113 -46.5q-46 0 -92 26.5zM646.5 195q21.5 24 21.5 61
q0 39 -22 63.5t-60 24.5q-29 0 -62.5 -21.5t-78.5 -68.5q43 -44 77 -63.5t68 -19.5q35 0 56.5 24zM272.5 192.5q36.5 21.5 74.5 62.5q-47 46 -81.5 67t-63.5 21q-35 0 -57 -25t-22 -62q0 -38 21.5 -61.5t60.5 -23.5q31 0 67.5 21.5z" />
    <glyph glyph-name="integral" unicode="&#x222b;" horiz-adv-x="577" 
d="M122 -197q-26 17 -26 45q0 18 12 30.5t30 12.5q28 0 44 -35q9 -20 17 -20q24 0 24 70l-1 53q-1 12 -1 32v597q0 104 34 151t100 47q36 0 64 -16.5t28 -47.5q0 -19 -13 -31.5t-33 -12.5q-18 0 -27.5 9t-20.5 30q-6 15 -16 15q-25 0 -25 -64q0 -30 1 -46l1 -78v-550
q0 -111 -34 -159.5t-99 -48.5q-33 0 -59 17z" />
    <glyph glyph-name="approxequal" unicode="&#x2248;" horiz-adv-x="576" 
d="M80.5 386.5q35.5 41.5 92.5 41.5q28 0 61.5 -9t79.5 -27q86 -33 127 -33q54 0 69 71h59q-8 -75 -44 -116t-94 -41q-29 0 -66.5 11t-101.5 35q-66 24 -96 24q-27 0 -45 -19.5t-25 -53.5h-60q8 75 43.5 116.5zM79.5 195.5q35.5 41.5 92.5 41.5q27 0 59 -9t81 -27
q45 -17 75 -25t52 -8q55 0 69 70h59q-8 -75 -43.5 -115.5t-93.5 -40.5q-29 0 -67 10.5t-102 34.5q-65 25 -95 25q-27 0 -45.5 -19.5t-25.5 -53.5h-59q8 75 43.5 116.5z" />
    <glyph glyph-name="notequal" unicode="&#x2260;" horiz-adv-x="576" 
d="M118 -4l57 111h-131v87h175l64 122h-239v86h284l77 150l75 -39l-57 -111h134v-86h-179l-63 -122h242v-87h-286l-77 -150z" />
    <glyph glyph-name="lessequal" unicode="&#x2264;" horiz-adv-x="576" 
d="M44 269v89l513 183v-92l-395 -135l395 -131v-92zM44 54h513v-87h-513v87z" />
    <glyph glyph-name="greaterequal" unicode="&#x2265;" horiz-adv-x="576" 
d="M44 183l394 131l-394 135v92l513 -183v-89l-513 -178v92zM44 54h513v-87h-513v87z" />
    <glyph glyph-name="lozenge" unicode="&#x25ca;" horiz-adv-x="593" 
d="M81 356l173 391h84l174 -391l-174 -391h-84zM423 356l-127 303l-125 -303l125 -303z" />
    <glyph glyph-name="acute.cap" unicode="&#xe301;" horiz-adv-x="278" 
d="M151 885h123l-134 -145h-75z" />
    <glyph glyph-name="grave.cap" unicode="&#xe300;" horiz-adv-x="278" 
d="M4 885h123l86 -145h-75z" />
    <glyph glyph-name="circumflex.cap" unicode="&#xe302;" horiz-adv-x="278" 
d="M92 885h96l102 -145h-84l-67 92l-68 -92h-84z" />
    <glyph glyph-name="tilde.cap" unicode="&#xe304;" horiz-adv-x="278" 
d="M-4 834.5q27 32.5 67 32.5q20 0 39 -6t47 -18q24 -10 39 -15t31 -5q21 0 31.5 13.5t11.5 33.5h50q-4 -55 -29.5 -85.5t-65.5 -30.5q-23 0 -43 5.5t-45 16.5q-24 10 -38 14.5t-29 4.5q-22 0 -33.5 -13t-13.5 -32h-50q4 52 31 84.5z" />
    <glyph glyph-name="dieresis.cap" unicode="&#xe305;" horiz-adv-x="278" 
d="M-7 867h106v-108h-106v108zM179 867h105v-108h-105v108z" />
    <glyph glyph-name="dotaccent.cap" unicode="&#xe30a;" horiz-adv-x="278" 
d="M86 867h105v-108h-105v108z" />
    <glyph glyph-name="ring.cap" unicode="&#xe308;" horiz-adv-x="278" 
d="M67.5 757.5q-30.5 30.5 -30.5 72.5t30.5 72.5t72.5 30.5q43 0 73 -30.5t30 -72.5t-30 -72.5t-73 -30.5q-42 0 -72.5 30.5zM179.5 790.5q16.5 16.5 16.5 39.5t-16.5 39.5t-39.5 16.5q-24 0 -40 -16.5t-16 -39.5t16.5 -39.5t39.5 -16.5t39.5 16.5z" />
    <glyph glyph-name="breve.cap" unicode="&#xe307;" horiz-adv-x="278" 
d="M28.5 781.5q-43.5 39.5 -48.5 104.5h56q18 -79 103 -79q86 0 103 79h56q-5 -66 -48 -105t-111 -39q-67 0 -110.5 39.5z" />
    <glyph glyph-name="macron.cap" unicode="&#xe306;" horiz-adv-x="278" 
d="M-8 847h293v-69h-293v69z" />
    <glyph glyph-name="caron.cap" unicode="&#xe303;" horiz-adv-x="278" 
d="M-13 885h85l68 -92l66 92h84l-102 -145h-96z" />
    <glyph glyph-name="hungarumlaut.cap" unicode="&#xe309;" horiz-adv-x="278" 
d="M42 885h123l-134 -145h-75zM231 885h123l-134 -145h-75z" />
    <glyph glyph-name="uniE30C" unicode="&#xe30c;" horiz-adv-x="0" 
d="M-177 -72h111l-59 -150h-88z" />
    <glyph glyph-name="caron.alt" unicode="&#xe30b;" horiz-adv-x="278" 
d="M27 728h104l-52 -196h-70z" />
    <glyph glyph-name="uni0326.alt" unicode="&#xe30d;" horiz-adv-x="0" 
d="M-153 728h84l-35 -145h-107z" />
    <glyph glyph-name="uniF8FF" unicode="&#xf8ff;" horiz-adv-x="512" 
d="M0 718h512v-718h-512v718zM462 50v617h-412v-617h412zM223 264q0 37 10 61.5t43 59.5l16 17q21 20 30.5 35t9.5 37q0 36 -22.5 60.5t-53.5 24.5q-34 0 -55 -23.5t-27 -71.5l-50 8q6 66 41.5 101.5t93.5 35.5q54 0 89 -36t35 -95q0 -36 -14 -62t-50 -59q-22 -20 -31 -31.5
t-12.5 -26.5t-3.5 -42v-23h-47q-2 14 -2 30zM222 184h56v-67h-56v67z" />
    <glyph glyph-name="Ccircumflex" unicode="&#x108;" horiz-adv-x="611" 
d="M226 31q-85 43 -130.5 123.5t-45.5 190.5q0 111 46.5 193.5t131.5 127t198 44.5q87 0 158 -29l-9 -108q-65 38 -148 38q-74 0 -131 -34t-88.5 -94t-31.5 -135q0 -76 32 -135t88.5 -92.5t129.5 -33.5q40 0 83.5 8.5t69.5 23.5l6 -107q-74 -24 -159 -24q-115 0 -200 43z
M344 885h96l102 -145h-84l-67 92l-68 -92h-84z" />
    <glyph glyph-name="ccircumflex" unicode="&#x109;" horiz-adv-x="444" 
d="M158.5 22.5q-58.5 34.5 -90 96t-31.5 139.5q0 77 31 138t89 95t135 34q67 0 122 -19l-10 -92q-46 21 -96 21q-69 0 -110 -50.5t-41 -126.5q0 -77 40 -128.5t115 -51.5q23 0 50.5 7t51.5 20l6 -98q-53 -19 -125 -19q-78 0 -136.5 34.5zM230 710h96l103 -145h-85l-67 92
l-67 -92h-85z" />
    <glyph glyph-name="Cdotaccent" unicode="&#x10a;" horiz-adv-x="611" 
d="M226 31q-85 43 -130.5 123.5t-45.5 190.5q0 111 46.5 193.5t131.5 127t198 44.5q87 0 158 -29l-9 -108q-65 38 -148 38q-74 0 -131 -34t-88.5 -94t-31.5 -135q0 -76 32 -135t88.5 -92.5t129.5 -33.5q40 0 83.5 8.5t69.5 23.5l6 -107q-74 -24 -159 -24q-115 0 -200 43z
M338 867h105v-108h-105v108z" />
    <glyph glyph-name="cdotaccent" unicode="&#x10b;" horiz-adv-x="444" 
d="M158.5 22.5q-58.5 34.5 -90 96t-31.5 139.5q0 77 31 138t89 95t135 34q67 0 122 -19l-10 -92q-46 21 -96 21q-69 0 -110 -50.5t-41 -126.5q0 -77 40 -128.5t115 -51.5q23 0 50.5 7t51.5 20l6 -98q-53 -19 -125 -19q-78 0 -136.5 34.5zM225 691h105v-108h-105v108z" />
    <glyph glyph-name="Ebreve" unicode="&#x114;" 
d="M88 698h401v-99h-281v-188h257v-99h-257v-213h282v-99h-402v698zM178.5 781.5q-43.5 39.5 -48.5 104.5h56q18 -79 103 -79q86 0 103 79h56q-5 -66 -48 -105t-111 -39q-67 0 -110.5 39.5z" />
    <glyph glyph-name="ebreve" unicode="&#x115;" 
d="M110.5 59q-69.5 71 -69.5 201q0 75 28 135.5t82.5 95t128.5 34.5q120 0 177.5 -74.5t57.5 -225.5h-360q3 -68 47 -109t111 -41q42 0 86.5 15t77.5 37v-102q-44 -21 -83.5 -29t-84.5 -8q-129 0 -198.5 71zM401 306q-2 60 -33 96t-86 36q-53 0 -86.5 -35t-40.5 -97h246z
M167.5 604q-43.5 39 -48.5 105h56q8 -40 34.5 -59.5t68.5 -19.5t68.5 19.5t34.5 59.5h56q-6 -66 -49 -105t-110 -39t-110.5 39z" />
    <glyph glyph-name="Gcircumflex" unicode="&#x11c;" horiz-adv-x="722" 
d="M226 31q-85 43 -130.5 123.5t-45.5 190.5t46 192.5t131.5 127.5t199.5 45q58 0 106 -7t98 -25l-8 -109q-77 42 -186 42q-78 0 -137 -33.5t-91.5 -93t-32.5 -136.5q0 -76 32 -135.5t89 -92.5t130 -33q55 0 101 11v197h-147v96h264v-369q-110 -34 -219 -34q-115 0 -200 43z
M360 885h96l102 -145h-84l-67 92l-68 -92h-84z" />
    <glyph glyph-name="gcircumflex" unicode="&#x11d;" horiz-adv-x="611" 
d="M182 -214q-43 8 -93 27l10 100q93 -45 167 -45q81 0 119 48.5t38 133.5v31h-2q-26 -38 -70.5 -59.5t-95.5 -21.5q-104 0 -159 72t-55 184q0 69 25 130.5t75.5 100t122.5 38.5q115 0 163 -85h2v73h108v-478q0 -126 -66.5 -191.5t-200.5 -65.5q-45 0 -88 8zM387 137.5
q36 47.5 36 119.5q0 75 -33 126.5t-98 51.5q-62 0 -96.5 -51t-34.5 -126q0 -43 15.5 -82t44.5 -62.5t68 -23.5q62 0 98 47.5zM259 710h96l103 -145h-85l-67 92l-67 -92h-85z" />
    <glyph glyph-name="Gdotaccent" unicode="&#x120;" horiz-adv-x="722" 
d="M226 31q-85 43 -130.5 123.5t-45.5 190.5t46 192.5t131.5 127.5t199.5 45q58 0 106 -7t98 -25l-8 -109q-77 42 -186 42q-78 0 -137 -33.5t-91.5 -93t-32.5 -136.5q0 -76 32 -135.5t89 -92.5t130 -33q55 0 101 11v197h-147v96h264v-369q-110 -34 -219 -34q-115 0 -200 43z
M354 867h105v-108h-105v108z" />
    <glyph glyph-name="gdotaccent" unicode="&#x121;" horiz-adv-x="611" 
d="M182 -214q-43 8 -93 27l10 100q93 -45 167 -45q81 0 119 48.5t38 133.5v31h-2q-26 -38 -70.5 -59.5t-95.5 -21.5q-104 0 -159 72t-55 184q0 69 25 130.5t75.5 100t122.5 38.5q115 0 163 -85h2v73h108v-478q0 -126 -66.5 -191.5t-200.5 -65.5q-45 0 -88 8zM387 137.5
q36 47.5 36 119.5q0 75 -33 126.5t-98 51.5q-62 0 -96.5 -51t-34.5 -126q0 -43 15.5 -82t44.5 -62.5t68 -23.5q62 0 98 47.5zM254 691h105v-108h-105v108z" />
    <glyph glyph-name="Hcircumflex" unicode="&#x124;" horiz-adv-x="722" 
d="M88 698h120v-287h307v287h120v-698h-120v312h-307v-312h-120v698zM317 885h96l102 -145h-84l-67 92l-68 -92h-84z" />
    <glyph glyph-name="hcircumflex" unicode="&#x125;" horiz-adv-x="611" 
d="M75 750h114v-309h2q26 40 68 62t95 22q91 0 137 -55.5t46 -154.5v-315h-114v280q0 78 -23 116.5t-76 38.5q-71 0 -103 -56t-32 -135v-244h-114v750zM262 930h96l103 -145h-85l-67 92l-67 -92h-85z" />
    <glyph glyph-name="Hbar" unicode="&#x126;" horiz-adv-x="722" 
d="M88 495h-69v72h69v131h120v-131h307v131h120v-131h69v-72h-69v-495h-120v290h-307v-290h-120v495zM515 380v115h-307v-115h307z" />
    <glyph glyph-name="hbar" unicode="&#x127;" horiz-adv-x="611" 
d="M75 601h-81v67h81v82h114v-82h176v-67h-176v-160h2q26 40 68 62t95 22q91 0 137 -55.5t46 -154.5v-315h-114v280q0 78 -23 116.5t-76 38.5q-71 0 -103 -56t-32 -135v-244h-114v601z" />
    <glyph glyph-name="Itilde" unicode="&#x128;" horiz-adv-x="278" 
d="M79 698h120v-698h-120v698zM-4 834.5q27 32.5 67 32.5q20 0 39 -6t47 -18q24 -10 39 -15t31 -5q21 0 31.5 13.5t11.5 33.5h50q-4 -55 -29.5 -85.5t-65.5 -30.5q-23 0 -43 5.5t-45 16.5q-24 10 -38 14.5t-29 4.5q-22 0 -33.5 -13t-13.5 -32h-50q4 52 31 84.5z" />
    <glyph glyph-name="itilde" unicode="&#x129;" horiz-adv-x="278" 
d="M82 513h114v-513h-114v513zM-3 662.5q27 32.5 67 32.5q20 0 39.5 -6t45.5 -18q23 -10 39 -15t31 -5q20 0 31 13.5t13 33.5h50q-4 -55 -29.5 -85.5t-66.5 -30.5q-23 0 -42 5.5t-46 16.5q-24 10 -38 14.5t-29 4.5q-21 0 -33 -13t-13 -32h-51q5 52 32 84.5z" />
    <glyph glyph-name="IJ" unicode="&#x132;" horiz-adv-x="642" 
d="M79 698h120v-698h-120v698zM275 1v103q29 -11 64 -11q54 0 78.5 28.5t24.5 95.5v481h120v-523q0 -84 -49.5 -135.5t-143.5 -51.5q-55 0 -94 13z" />
    <glyph glyph-name="ij" unicode="&#x133;" horiz-adv-x="539" 
d="M79 734h120v-117h-120v117zM82 513h114v-513h-114v513zM340 734h120v-117h-120v117zM237 -216l3 90q17 -3 37 -3q66 0 66 101v541h114v-548q0 -99 -37.5 -143t-112.5 -44q-47 0 -70 6z" />
    <glyph glyph-name="Jcircumflex" unicode="&#x134;" horiz-adv-x="389" 
d="M22 1v103q29 -11 64 -11q54 0 78.5 28.5t24.5 95.5v481h120v-523q0 -84 -49.5 -135.5t-143.5 -51.5q-55 0 -94 13zM201 885h96l102 -145h-84l-67 92l-68 -92h-84z" />
    <glyph glyph-name="jcircumflex" unicode="&#x135;" horiz-adv-x="278" 
d="M-24 -216l3 90q17 -3 37 -3q66 0 66 101v541h114v-548q0 -99 -37.5 -143t-112.5 -44q-47 0 -70 6zM92 710h96l103 -145h-85l-67 92l-67 -92h-85z" />
    <glyph glyph-name="Ldot" unicode="&#x13f;" horiz-adv-x="500" 
d="M85 698h120v-599h281v-99h-401v698zM301 439h105v-108h-105v108z" />
    <glyph glyph-name="ldot" unicode="&#x140;" horiz-adv-x="415" 
d="M82 750h114v-750h-114v750zM279 439h105v-108h-105v108z" />
    <glyph glyph-name="napostrophe" unicode="&#x149;" horiz-adv-x="706" 
d="M34 698h127l-82 -222h-99zM170 513h109v-76h2q27 43 70.5 65.5t97.5 22.5q90 0 136.5 -55t46.5 -155v-315h-114v283q0 78 -24.5 115t-75.5 37q-66 0 -100 -52.5t-34 -138.5v-244h-114v513z" />
    <glyph glyph-name="Obreve" unicode="&#x14e;" horiz-adv-x="778" 
d="M208.5 32.5q-76.5 44.5 -117.5 126t-41 191.5q0 107 40 188.5t116.5 126.5t182.5 45q102 0 179 -44.5t118.5 -126t41.5 -189.5q0 -110 -41.5 -192t-118 -126t-179.5 -44q-104 0 -180.5 44.5zM505 121q48 34 72.5 93.5t24.5 135.5q0 70 -23.5 129.5t-71.5 95.5t-119 36
q-66 0 -114 -34.5t-73 -94t-25 -132.5q0 -117 56.5 -190t156.5 -73q68 0 116 34zM280.5 781.5q-43.5 39.5 -48.5 104.5h56q18 -79 103 -79q86 0 103 79h56q-5 -66 -48 -105t-111 -39q-67 0 -110.5 39.5z" />
    <glyph glyph-name="obreve" unicode="&#x14f;" horiz-adv-x="611" 
d="M167.5 23q-60.5 35 -93.5 96t-33 136q0 79 33.5 140.5t93.5 95.5t138 34q76 0 136 -33.5t94 -95t34 -141.5q0 -74 -33 -135t-93 -96.5t-139 -35.5q-77 0 -137.5 35zM413 129.5q37 51.5 37 133.5q0 46 -17 85.5t-50 63t-78 23.5q-44 0 -76.5 -24t-50 -63.5t-17.5 -84.5
q0 -82 37.5 -133.5t107.5 -51.5t107 51.5zM194.5 604q-43.5 39 -48.5 105h56q8 -40 34.5 -59.5t68.5 -19.5t68.5 19.5t34.5 59.5h56q-6 -66 -49 -105t-110 -39t-110.5 39z" />
    <glyph glyph-name="Scircumflex" unicode="&#x15c;" horiz-adv-x="528" 
d="M147.5 -5.5q-33.5 6.5 -85.5 21.5l12 110q37 -18 76.5 -28.5t74.5 -10.5q50 0 90.5 26.5t40.5 75.5q0 38 -28.5 64t-97.5 55q-57 25 -93.5 47.5t-60 60t-23.5 93.5q0 97 65 149t169 52q84 0 158 -25l-14 -103q-37 16 -68.5 22.5t-67.5 6.5q-52 0 -84 -24t-32 -71
q0 -27 17.5 -46t36.5 -29t70 -33q56 -24 92.5 -47t61.5 -63t25 -100q0 -101 -68.5 -155.5t-190.5 -54.5q-42 0 -75.5 6.5zM219 885h96l102 -145h-84l-67 92l-68 -92h-84z" />
    <glyph glyph-name="scircumflex" unicode="&#x15d;" horiz-adv-x="417" 
d="M39 13l7 97q28 -16 61.5 -25.5t62.5 -9.5q37 0 64.5 16.5t27.5 51.5q0 26 -21.5 43t-72.5 36q-72 26 -102.5 59.5t-30.5 85.5q0 76 53.5 117t138.5 41q53 0 131 -20l-9 -91q-24 11 -54 17.5t-55 6.5q-38 0 -61.5 -16t-23.5 -44q0 -25 22 -41t72 -34q70 -25 101.5 -59.5
t31.5 -91.5q0 -77 -55 -120.5t-143 -43.5q-80 0 -145 25zM162 710h96l103 -145h-85l-67 92l-67 -92h-85z" />
    <glyph glyph-name="Tbar" unicode="&#x166;" 
d="M218 379h-163v79h163v141h-208v99h537v-99h-209v-141h164v-79h-164v-379h-120v379z" />
    <glyph glyph-name="tbar" unicode="&#x167;" horiz-adv-x="389" 
d="M159 30q-41 42 -41 115v118h-92v69h92v94h-107v87h107v110l114 37v-147h127v-87h-127v-94h104v-69h-104v-97q0 -40 18 -64t53 -24q36 0 62 16l2 -93q-42 -13 -89 -13q-78 0 -119 42z" />
    <glyph glyph-name="Utilde" unicode="&#x168;" horiz-adv-x="722" 
d="M152.5 61q-69.5 73 -69.5 208v429h120v-402q0 -209 158 -209t158 209v402h120v-430q0 -136 -70.5 -208t-207.5 -72q-139 0 -208.5 73zM221 836.5q27 32.5 67 32.5q20 0 39 -6t47 -18q24 -10 39 -15t31 -5q21 0 31.5 13.5t11.5 33.5h50q-4 -55 -29.5 -85.5t-65.5 -30.5
q-23 0 -43 5.5t-45 16.5q-24 10 -38 14.5t-29 4.5q-22 0 -33.5 -13t-13.5 -32h-50q4 52 31 84.5z" />
    <glyph glyph-name="utilde" unicode="&#x169;" horiz-adv-x="611" 
d="M121.5 43q-46.5 55 -46.5 155v315h114v-285q0 -88 28 -119t71 -31q65 0 100 51.5t35 140.5v243h114v-513h-109v76h-2q-27 -41 -71 -64.5t-97 -23.5q-90 0 -136.5 55zM163 662.5q27 32.5 67 32.5q20 0 39.5 -6t45.5 -18q23 -10 39 -15t31 -5q20 0 31 13.5t13 33.5h50
q-4 -55 -29.5 -85.5t-66.5 -30.5q-23 0 -42 5.5t-46 16.5q-24 10 -38 14.5t-29 4.5q-21 0 -33 -13t-13 -32h-51q5 52 32 84.5z" />
    <glyph glyph-name="Ubreve" unicode="&#x16c;" horiz-adv-x="722" 
d="M152.5 61q-69.5 73 -69.5 208v429h120v-402q0 -209 158 -209t158 209v402h120v-430q0 -136 -70.5 -208t-207.5 -72q-139 0 -208.5 73zM252.5 781.5q-43.5 39.5 -48.5 104.5h56q18 -79 103 -79q86 0 103 79h56q-5 -66 -48 -105t-111 -39q-67 0 -110.5 39.5z" />
    <glyph glyph-name="ubreve" unicode="&#x16d;" horiz-adv-x="611" 
d="M121.5 43q-46.5 55 -46.5 155v315h114v-285q0 -88 28 -119t71 -31q65 0 100 51.5t35 140.5v243h114v-513h-109v76h-2q-27 -41 -71 -64.5t-97 -23.5q-90 0 -136.5 55zM194.5 604q-43.5 39 -48.5 105h56q8 -40 34.5 -59.5t68.5 -19.5t68.5 19.5t34.5 59.5h56
q-6 -66 -49 -105t-110 -39t-110.5 39z" />
    <glyph glyph-name="Wcircumflex" unicode="&#x174;" horiz-adv-x="1000" 
d="M6 698h129l148 -578h2l134 578h166l137 -578h2l149 578h121l-198 -698h-155l-139 584h-2l-138 -584h-158zM453 885h96l102 -145h-84l-67 92l-68 -92h-84z" />
    <glyph glyph-name="wcircumflex" unicode="&#x175;" horiz-adv-x="861" 
d="M12 513h122l116 -402h2l117 402h133l120 -402h2l116 402h110l-161 -513h-134l-122 411h-2l-119 -411h-131zM383 710h96l103 -145h-85l-67 92l-67 -92h-85z" />
    <glyph glyph-name="Ycircumflex" unicode="&#x176;" horiz-adv-x="667" 
d="M275 284l-264 414h141l186 -303l186 303h132l-261 -414v-284h-120v284zM286 885h96l102 -145h-84l-67 92l-68 -92h-84z" />
    <glyph glyph-name="ycircumflex" unicode="&#x177;" horiz-adv-x="528" 
d="M40 -212l7 88q24 -8 56 -8q42 0 68.5 31t31.5 77q-3 11 -15 46l-179 491h126l130 -399h2l132 399h116l-209 -567q-31 -82 -72 -125t-116 -43q-38 0 -78 10zM217 710h96l103 -145h-85l-67 92l-67 -92h-85z" />
    <glyph glyph-name="uni0237" unicode="&#x237;" horiz-adv-x="278" 
d="M-24 -216l3 90q17 -3 37 -3q66 0 66 101v541h114v-548q0 -99 -37.5 -143t-112.5 -44q-47 0 -70 6z" />
    <glyph glyph-name="zero.tf" 
d="M98 83q-60 95 -60 265q0 166 60 264t180 98q118 0 179 -95.5t61 -266.5q0 -164 -59.5 -262t-180.5 -98q-120 0 -180 95zM395 348q0 269 -118 269q-65 0 -90.5 -76.5t-25.5 -190.5q0 -269 117 -269t117 267z" />
    <glyph glyph-name="one.tf" 
d="M268 561l-112 -94l-62 79l188 152h106v-698h-120v561z" />
    <glyph glyph-name="two.tf" 
d="M46 112l118 108q94 89 145 161.5t51 130.5q0 46 -35.5 74t-88.5 28q-76 0 -161 -50l-10 101q96 45 195 45q103 0 163 -53t60 -148q0 -73 -60 -165t-218 -233l-15 -14v-1h309v-96h-453v112z" />
    <glyph glyph-name="three.tf" 
d="M48 13l7 106q80 -35 154 -35q63 0 111 28.5t48 80.5q0 60 -41.5 90.5t-121.5 30.5h-66v96h61q72 0 117.5 26.5t45.5 76.5q0 49 -33.5 75t-95.5 26q-77 0 -155 -37l-7 100q40 16 88.5 24.5t95.5 8.5q100 0 165 -46.5t65 -137.5q0 -60 -36 -101.5t-104 -61.5v-2
q69 -12 107 -56.5t38 -113.5q0 -99 -71 -151t-201 -52q-83 0 -171 25z" />
    <glyph glyph-name="four.tf" 
d="M331 152h-313v98l271 448h159v-453h88v-93h-88v-152h-117v152zM331 245v339h-2l-196 -339h198z" />
    <glyph glyph-name="five.tf" 
d="M77 10l3 109q39 -19 72.5 -27t69.5 -8q69 0 113.5 35.5t44.5 95.5q0 65 -45.5 100t-119.5 35q-69 0 -130 -23l7 371h392v-93h-279l-5 -168q39 9 77 9q63 0 114.5 -26.5t81.5 -76.5t30 -118q0 -72 -34.5 -125.5t-95.5 -82.5t-140 -29q-82 0 -156 22z" />
    <glyph glyph-name="six.tf" 
d="M48 318q0 176 69.5 284t215.5 108q38 0 78 -6.5t68 -16.5l-16 -101q-59 28 -123 28q-85 0 -131.5 -66t-49.5 -169h2q30 35 65.5 51t79.5 16q96 0 151 -59t55 -158q0 -112 -61 -176.5t-167 -64.5q-236 0 -236 330zM361 121q28 40 28 96q0 55 -27 95.5t-80 40.5
q-50 0 -80.5 -37t-30.5 -99q0 -55 28.5 -95.5t81.5 -40.5q52 0 80 40z" />
    <glyph glyph-name="seven.tf" 
d="M374 602h-324v96h446v-99l-253 -599h-131z" />
    <glyph glyph-name="eight.tf" 
d="M155.5 11q-54.5 23 -86.5 67.5t-32 107.5q0 121 138 179v2q-61 24 -92.5 68t-31.5 99q0 80 61.5 128t162.5 48q66 0 117 -20.5t79.5 -57.5t28.5 -84q0 -57 -30 -101t-90 -72v-2q68 -27 104 -73.5t36 -110.5q0 -96 -65 -148.5t-176 -52.5q-69 0 -123.5 23zM360.5 467
q19.5 29 19.5 63q0 38 -28.5 62.5t-74.5 24.5q-24 0 -49.5 -10t-42.5 -31t-17 -50q0 -33 29 -59.5t98 -56.5q46 28 65.5 57zM363.5 109q33.5 28 33.5 76q0 41 -22 67t-61 44q-19 9 -32 14t-20 8l-25 -16q-41 -22 -59 -48.5t-18 -63.5q0 -48 36.5 -78.5t86.5 -30.5
q47 0 80.5 28z" />
    <glyph glyph-name="nine.tf" 
d="M145.5 -5.5q-40.5 6.5 -67.5 17.5l16 101q60 -29 123 -29q83 0 130.5 64.5t50.5 170.5l-2 1q-30 -35 -64.5 -51t-79.5 -16q-98 0 -152.5 59.5t-54.5 156.5q0 112 61 176.5t167 64.5q236 0 236 -330q0 -175 -69 -283.5t-216 -108.5q-38 0 -78.5 6.5zM356.5 384.5
q29.5 38.5 29.5 97.5q0 54 -28.5 94.5t-82.5 40.5q-49 0 -78 -38.5t-29 -97.5q0 -55 27.5 -95t78.5 -40q53 0 82.5 38.5z" />
    </font>
</defs>
</svg>
